<?xml version="1.0" standalone="no"?>
<!DOCTYPE svg PUBLIC "-//W3C//DTD SVG 20010904//EN"
 "http://www.w3.org/TR/2001/REC-SVG-20010904/DTD/svg10.dtd">
<svg version="1.0" xmlns="http://www.w3.org/2000/svg"
 viewBox="0 0 2600.000000 2600.000000"
 preserveAspectRatio="xMidYMid meet">
<metadata>
Created by potrace 1.13, written by Peter Selinger 2001-2015
</metadata>
<g transform="translate(0.000000,2600.000000) scale(0.100000,-0.100000)"
fill="#000000" stroke="none">
<path d="M12755 22404 c-27 -2 -113 -11 -190 -20 -1189 -132 -2256 -777 -2923
-1766 -387 -576 -619 -1231 -682 -1923 -14 -155 -14 -546 0 -700 77 -851 397
-1621 949 -2280 41 -49 149 -164 240 -255 645 -643 1455 -1036 2386 -1157 219
-28 760 -26 985 5 776 105 1431 384 2045 871 158 125 485 453 617 618 503 633
787 1331 879 2163 19 168 16 640 -5 815 -57 486 -179 913 -380 1331 -608 1262
-1812 2116 -3211 2279 -133 16 -597 28 -710 19z"/>
<path d="M12665 13349 c-2588 -92 -4997 -1283 -6551 -3239 -493 -621 -912
-1363 -1187 -2100 -318 -855 -480 -1778 -464 -2645 6 -273 10 -310 62 -474 65
-206 173 -380 334 -542 210 -209 457 -336 746 -383 91 -15 413 -17 3765 -14
l3665 3 101 27 c275 73 480 190 665 378 182 185 303 414 361 683 31 146 31
389 -1 537 -102 477 -443 865 -891 1014 -219 73 -175 69 -998 73 l-742 4 6 42
c32 228 88 415 179 598 254 511 704 856 1268 975 152 31 422 43 573 25 294
-36 564 -136 804 -296 100 -67 1873 -1537 1997 -1656 299 -287 480 -642 537
-1054 9 -60 17 -126 18 -145 l3 -34 185 2 c982 13 2455 62 3205 107 780 47
1235 108 1258 169 7 18 -10 489 -23 631 -130 1432 -630 2736 -1490 3890 -254
342 -448 564 -774 891 -440 439 -846 770 -1347 1097 -1363 888 -2919 1374
-4604 1437 -284 11 -348 10 -660 -1z m-2075 -2324 c635 -105 1165 -532 1405
-1130 39 -98 86 -266 107 -385 18 -101 17 -470 0 -570 -35 -192 -81 -336 -162
-506 -469 -976 -1685 -1332 -2604 -762 -419 260 -726 698 -825 1177 -50 242
-51 513 -1 753 94 452 381 878 765 1133 243 161 504 263 760 294 50 6 101 13
115 15 52 9 349 -4 440 -19z"/>
</g>
</svg>
