<?xml version="1.0" encoding="utf-8"?>
<!-- Generator: Adobe Illustrator 16.0.0, SVG Export Plug-In . SVG Version: 6.00 Build 0)  -->
<!DOCTYPE svg PUBLIC "-//W3C//DTD SVG 1.1//EN" "http://www.w3.org/Graphics/SVG/1.1/DTD/svg11.dtd">
<svg version="1.1" id="圖層_1" xmlns="http://www.w3.org/2000/svg" xmlns:xlink="http://www.w3.org/1999/xlink" x="0px" y="0px"
	 width="24px" height="24px" viewBox="0 0 24 24" enable-background="new 0 0 24 24" xml:space="preserve">
<path fill="#FFFFFF" d="M12,4c3.8,0,6.5,2.8,6.5,6.8c-4.189,1.59-8.81,1.59-13,0C5.5,6.8,8.2,4,12,4 M12,2c-4.7,0-8.5,3.5-8.5,8.9
	c0.06,0.8,0.56,1.5,1.3,1.8l1.7,0.5v2.3C6.5,15.776,6.276,16,6,16s-0.5-0.224-0.5-0.5c0.07-0.58-0.42-1.07-1-1
	c-0.58-0.07-1.07,0.42-1,1C3.44,16.859,4.54,18,5.9,18H6c1.41,0.061,2.56-1.09,2.5-2.5v-1.8h1v5.7c0,0.67-1,0.67-1,0
	c0.07-0.58-0.42-1.07-1-1c-0.58-0.07-1.07,0.42-1,1C6.39,20.8,7.5,22,8.9,22H9c1.41,0.061,2.56-1.09,2.5-2.5V14h1v5.5
	c-0.06,1.41,1.09,2.561,2.5,2.5h0.1c1.371,0,2.461-1.141,2.4-2.5c0-1.33-2-1.33-2,0c0,0.67-1,0.67-1,0v-5.7h1v1.8
	c0,1.36,1.13,2.461,2.5,2.4h0.1c1.371,0,2.461-1.141,2.4-2.5c0-1.33-2-1.33-2,0c0,0.67-1,0.67-1,0v-2.3l1.7-0.5
	c0.72-0.34,1.21-1.02,1.3-1.8C20.5,5.5,16.7,2,12,2 M12,6.2c-1.47,0.4-2.76,1.33-3.6,2.6C8,9.33,7.2,8.73,7.6,8.2
	c1-1.47,2.49-2.53,4.2-3c0.28-0.06,0.55,0.12,0.6,0.4C12.5,5.9,12.3,6.1,12,6.2z"/>
</svg>
