<?xml version="1.0" encoding="utf-8"?>
<!-- Generator: Adobe Illustrator 16.0.0, SVG Export Plug-In . SVG Version: 6.00 Build 0)  -->
<!DOCTYPE svg PUBLIC "-//W3C//DTD SVG 1.1//EN" "http://www.w3.org/Graphics/SVG/1.1/DTD/svg11.dtd">
<svg version="1.1" id="Layer_1" xmlns="http://www.w3.org/2000/svg" xmlns:xlink="http://www.w3.org/1999/xlink" x="0px" y="0px"
	 width="1024px" height="768px" viewBox="0 0 1024 768" enable-background="new 0 0 1024 768" xml:space="preserve">
<g>
	<g>
		<g>
			<path fill="#FCFCFC" d="M524.808,42.024c3.135,4.284,7.996,6.553,12.927,6.553c3.279,0,6.587-1.003,9.434-3.088
				c7.131-5.218,8.684-15.229,3.467-22.363l-0.72-0.963c-5.297-7.074-15.321-8.519-22.398-3.221
				c-7.074,5.295-8.516,15.324-3.221,22.398L524.808,42.024z"/>
			<path fill="#FCFCFC" d="M548.306,78.72c18.645,33.657,35.195,75.819,49.199,125.31c1.994,7.047,8.409,11.649,15.389,11.649
				c1.44,0,2.907-0.197,4.363-0.609c8.504-2.405,13.447-11.249,11.04-19.754C613.422,142.732,596.41,99.521,576.3,63.211
				c-4.281-7.729-14.02-10.528-21.75-6.243C546.817,61.251,544.024,70.987,548.306,78.72z"/>
			<path fill="#FCFCFC" d="M542.587,564.072l-0.644-0.085c-8.748-1.161-16.804,4.993-17.967,13.755
				c-1.165,8.76,4.992,16.806,13.754,17.968l0.854,0.11c0.681,0.087,1.357,0.127,2.024,0.127c7.944,0,14.835-5.91,15.854-13.999
				C557.566,573.182,551.356,565.178,542.587,564.072z"/>
			<path fill="#FCFCFC" d="M358.725,87.046c-8.817,0-16.003,7.188-16.003,16.002s7.188,16.002,16.003,16.002
				s15.998-7.188,15.998-16.002S367.538,87.046,358.725,87.046z"/>
			<path fill="#FCFCFC" d="M822.945,444.713c0-44.111-35.89-79.998-80.001-79.998c-44.11,0-79.997,35.888-79.997,79.998
				c0,2.687,0.13,5.354,0.393,8h-49.587C581.312,241.077,536.01,0,391.483,0c-6.648,0-13.51,0.537-20.4,1.598
				c-38.137,5.863-66.12,22.047-83.172,48.104c-10.308,15.751-16.194,34.263-17.919,56.431l-64.303,64.885
				c-4.305,4.346-5.757,10.767-3.74,16.542c2.018,5.775,7.152,9.896,13.229,10.612c42.217,4.989,66.051,6.854,89.104,8.657
				c4.945,0.385,9.966,0.777,15.199,1.205c-33.814,71.556-54.022,145.409-58.669,214.906
				c-5.112,76.438,8.864,145.705,40.436,200.942c0.125,0.23,0.249,0.457,0.384,0.68c1.167,2.03,2.354,4.045,3.568,6.037
				c5.343,8.751,11.519,17.736,18.649,26.718l-46.541,39.741c-16.86,14.396-33.19,31.567-26.473,49.78
				c6.859,18.599,31.195,21.164,56.472,21.164h285.307c0.037,0,0.072-0.005,0.106-0.005c0.109,0,0.218,0.001,0.327,0.001
				c27.175,0,56.097-1.991,85.96-5.92c7.874-1.035,13.796-7.69,13.911-15.63c0.118-7.939-5.605-14.765-13.444-16.033
				c-1.407-0.227-14.182-3.984-29.328-65.017c-7.864-31.686-14.853-72.258-21.797-116.683h34.989
				c-0.263,2.643-0.393,5.31-0.393,7.996c0,44.109,35.887,79.996,79.997,79.996c44.112,0,80.001-35.887,80.001-79.996
				c0-21.221-8.425-41.245-22.873-55.999C814.521,485.957,822.945,465.932,822.945,444.713z M323.75,598.251
				c-51-99.442-40.336-244.174,28.918-385.367c24.714,11.563,25.716,54.478,25.086,119.716
				c-0.442,45.81-0.946,97.732,12.213,143.137c5.106,17.611,11.946,33.227,20.561,46.93
				C403.29,547.787,382.599,584.558,323.75,598.251z M307.308,735.998L307.308,735.998c-11.383,0-18.4-0.746-22.639-1.532
				c2.433-2.925,6.538-7.195,13.423-13.073l47.148-40.262c20.721,20.415,47.182,39.686,80.894,54.867H307.308z M640.736,733.984
				c-16.402,1.338-32.351,2.01-47.688,2.01c-114.943,0-201.673-37.68-252.027-109.157c54.091-15.568,80.244-48.792,92.825-75.691
				c15.232,14.349,33.714,25.386,55.609,33.249c1.788,0.642,3.613,0.946,5.409,0.946c6.563,0,12.714-4.068,15.06-10.598
				c2.986-8.317-1.335-17.48-9.652-20.467c-92.345-33.164-91.373-133.149-90.521-221.364c0.357-36.568,0.691-71.11-5.913-98.003
				c-8.377-34.11-27.828-53.181-57.813-56.681c-0.069-0.007-0.138-0.006-0.208-0.015c-0.051-0.005-0.1-0.02-0.153-0.024
				c-14.747-1.381-27.022-2.343-38.892-3.27c-16.662-1.302-32.677-2.556-55.066-4.876l45.26-45.672
				c2.806-2.832,4.457-6.613,4.623-10.597c1.947-46.809,26.268-73.156,74.357-80.55C381.231,32.411,386.457,32,391.483,32
				c54.621,0,97.763,49.11,131.891,150.139c31.21,92.391,49.18,211.688,65.037,316.938c1.832,12.161,3.61,23.879,5.353,35.198
				c0.056,0.597,0.149,1.18,0.271,1.756C609.038,633.338,621.336,699.395,640.736,733.984z M766.183,514.703
				c15.273,8.474,24.762,24.57,24.762,42.009c0,26.465-21.532,47.994-48,47.994c-26.467,0-47.996-21.531-47.996-47.994
				c0-6.232,1.171-12.283,3.482-17.989c1.998-4.933,1.415-10.535-1.56-14.949c-2.972-4.414-7.947-7.059-13.27-7.059h-60.163
				c-1.122-7.406-2.247-14.877-3.381-22.399c-0.481-3.188-0.963-6.389-1.446-9.599h64.99c5.322,0,10.296-2.645,13.27-7.058
				c2.975-4.415,3.56-10.017,1.563-14.949c-2.312-5.709-3.484-11.765-3.484-17.992c0-26.466,21.529-47.997,47.997-47.997
				s48,21.531,48,47.997c0,17.438-9.489,33.532-24.762,42.007c-5.085,2.822-8.238,8.177-8.238,13.991
				C757.946,506.526,761.098,511.885,766.183,514.703z"/>
			<path fill="#FCFCFC" d="M742.948,428.714c-8.817,0-16.004,7.187-16.004,15.999c0,8.812,7.188,16.002,16.004,16.002
				c8.809,0,15.997-7.19,15.997-16.002C758.946,435.9,751.757,428.714,742.948,428.714z"/>
			<path fill="#FCFCFC" d="M742.948,540.71c-8.817,0-16.004,7.191-16.004,16.002s7.188,15.999,16.004,15.999
				c8.809,0,15.997-7.188,15.997-15.999C758.945,547.9,751.757,540.71,742.948,540.71z"/>
		</g>
	</g>
</g>
</svg>
