<?xml version="1.0" encoding="utf-8"?>
<!-- Generator: Adobe Illustrator 16.0.0, SVG Export Plug-In . SVG Version: 6.00 Build 0)  -->
<!DOCTYPE svg PUBLIC "-//W3C//DTD SVG 1.1//EN" "http://www.w3.org/Graphics/SVG/1.1/DTD/svg11.dtd">
<svg version="1.1" id="圖層_1" xmlns="http://www.w3.org/2000/svg" xmlns:xlink="http://www.w3.org/1999/xlink" x="0px" y="0px"
	 width="1024px" height="768px" viewBox="0 0 1024 768" enable-background="new 0 0 1024 768" xml:space="preserve">
<g>
	<g transform="translate(0.000000,512.000000) scale(0.100000,-0.100000)">
		<path fill="#FFFFFF" d="M4971.24,5035.444c-726.221-57.446-1337.549-574.541-1526.094-1293.388
			c-51.533-191.538-63.359-536.221-27.954-729.219c48.613-256.279,169.419-525.923,327.012-733.594
			c35.327-45.693,64.819-86.938,64.819-92.773c0-4.453-41.24-57.446-91.313-116.353c-51.533-58.906-131.099-160.586-176.797-225.41
			C3468.72,1744.56,2097.304-780.312,2107.597-793.603c2.92-2.92,135.552,19.131,297.598,47.158
			c162.051,29.492,303.438,52.988,316.724,52.988c17.666,0,25.039-25.029,32.412-113.428
			c22.119-245.996,70.732-465.488,144.38-658.486l45.698-117.813l-54.526-42.695c-29.492-23.584-82.485-81.025-117.813-126.719
			c-139.932-181.172-188.545-338.848-182.632-580.381l4.458-150.303H5120h2526.338l-1.465,184.17
			c0,213.584-20.654,297.598-104.6,440.449c-30.947,51.533-98.682,137.012-148.76,190l-94.307,95.771l45.693,119.346
			c66.279,172.344,103.145,327.012,131.094,556.797c16.211,144.385,29.492,203.291,42.705,203.291
			c10.293,0,153.213-23.574,315.263-51.533c163.506-29.492,297.598-51.533,300.518-48.613
			c8.828,13.291-1362.587,2539.629-1433.32,2638.31c-45.693,64.824-126.719,166.426-178.252,228.33
			c-64.814,75.107-89.854,116.353-81.025,128.179c300.518,413.95,403.662,699.722,403.662,1122.51
			c0,606.87-318.184,1163.75-848.486,1481.928c-197.373,117.813-478.77,210.664-690.889,223.95
			c-64.824,4.38-134.023,10.293-154.678,13.286C5128.828,5044.277,5049.267,5041.357,4971.24,5035.444z M4598.525,3974.833
			c191.543-35.327,378.555-172.339,462.568-340.298c23.574-50.073,44.16-98.691,44.16-110.518c0-10.288,7.373-19.121,14.746-19.121
			c8.828,0,14.746,8.833,14.746,19.121c0,47.153,81.025,182.71,154.678,259.277c245.986,259.277,643.73,271.025,900.098,27.954
			c147.295-138.467,182.705-238.618,182.705-509.644c0-350.591-135.557-661.401-393.291-901.558
			c-139.932-131.094-293.154-222.412-475.781-282.852c-135.547-45.693-148.76-47.158-382.998-47.158s-247.451,1.465-383.008,47.158
			c-521.465,175.332-867.686,642.275-872.061,1178.496c-1.46,262.197,39.78,378.545,182.705,514.097
			c95.771,89.858,176.797,132.558,297.529,159.057C4458.603,3993.959,4491.005,3993.959,4598.525,3974.833z M4218.447,1841.797
			c22.119-14.746,79.561-47.158,128.174-70.742c481.689-241.611,1065.068-241.611,1546.758,0
			c48.613,23.584,107.52,57.451,131.094,73.652l44.16,30.957l78.105-88.398c322.559-359.424,617.246-944.258,763.086-1515.801
			c85.479-334.395,103.145-478.769,103.145-839.658c-1.465-349.131-14.746-444.902-100.146-670.234
			c-41.24-110.439-33.867-108.975-238.623-60.361c-79.561,19.121-209.199,35.322-324.092,41.24
			c-458.115,20.586-894.18-117.813-1166.67-368.252l-63.359-58.906l-61.904,58.906
			c-357.959,328.467-997.246,458.105-1548.208,313.799c-60.366-16.201-119.346-32.412-132.559-38.32
			c-17.661-5.918-32.407,19.121-66.279,129.639c-78.105,244.531-83.94,288.691-83.94,659.941
			c1.46,296.064,5.913,371.25,33.867,522.93c110.361,581.836,303.359,1073.818,599.424,1517.266
			c98.691,148.76,291.689,390.371,310.811,390.371C4175.742,1869.746,4197.861,1857.998,4218.447,1841.797z M4328.955-1767.275
			c63.369-16.201,156.143-50.068,206.211-73.643c98.691-47.158,231.25-141.396,231.25-163.516
			c0-8.828-300.518-14.746-795.498-14.746c-471.396,0-795.493,5.918-795.493,13.291c0,35.332,218.032,164.971,360.884,215.039
			C3748.584-1717.197,4102.094-1706.904,4328.955-1767.275z M6607.841-1761.357c170.889-45.693,456.66-197.373,456.66-244.531
			c0-7.373-324.102-13.281-795.498-13.281s-795.498,5.908-795.498,13.281c0,16.201,85.479,83.945,163.516,131.094
			c81.016,48.623,238.613,104.609,363.877,128.184C6148.193-1718.652,6473.75-1727.49,6607.841-1761.357z"/>
		<path fill="#FFFFFF" d="M4513.125,3394.458c-128.174-72.192-73.652-272.485,72.197-272.485
			c94.307,1.455,162.041,79.565,145.84,167.959C4713.417,3387.085,4597.07,3441.611,4513.125,3394.458z"/>
		<path fill="#FFFFFF" d="M5606.142,3406.206c-82.48-29.487-122.266-131.094-82.48-207.666
			c29.492-55.986,64.814-76.567,134.014-76.567c104.6,0,175.332,126.719,125.186,222.412
			C5754.902,3395.918,5665.048,3428.325,5606.142,3406.206z"/>
		<path fill="#FFFFFF" d="M5040.439,3099.853c-81.025-27.954-232.783-135.552-355.049-248.984l-103.145-95.771l75.107-1.46
			c63.359,0,79.57-5.913,117.813-45.693c67.744-72.192,213.584-170.884,282.852-191.543c50.078-14.741,73.652-14.741,125.186,0
			c67.822,20.659,213.584,119.351,281.396,191.543c38.32,39.78,54.453,45.693,117.813,45.693l75.107,1.46l-95.771,89.858
			c-128.174,117.886-263.652,215.039-353.506,248.984C5121.455,3126.347,5115.625,3126.347,5040.439,3099.853z"/>
		<path fill="#FFFFFF" d="M4993.359,639.717C4930,521.904,4866.64,423.145,4854.882,418.77
			c-11.748-2.92-125.176-26.504-250.439-52.998c-125.186-25.039-234.238-51.533-241.611-58.906
			c-7.373-5.908,67.734-98.682,173.799-210.664c210.654-225.4,195.918-187.08,163.506-465.478
			c-11.748-101.611-22.119-194.463-22.119-209.209c0-17.656,51.533,4.453,212.119,92.852
			c116.357,63.359,218.037,116.357,228.33,116.357c8.828,0,122.266-52.998,251.904-117.812
			c129.639-64.824,235.693-110.439,235.693-100.146c0,8.828-17.656,135.547-38.32,279.853l-39.785,265.195l187.09,187.08
			l188.545,188.545l-240.078,32.412c-131.104,17.666-244.531,35.332-250.449,39.785c-5.908,2.92-72.188,106.055-147.295,226.865
			C5192.197,754.609,5125.917,853.379,5120,853.379C5115.625,853.379,5058.095,757.607,4993.359,639.717z"/>
	</g>
</g>
</svg>
