<svg id="Layer_1" enable-background="new 0 0 497 497" height="512" viewBox="0 0 497 497" width="512" xmlns="http://www.w3.org/2000/svg"><path d="m36.458 297.7s-.815 27.187-23.359 71.832c-7.357 14.568-4.774 32.183 6.588 43.899 10.837 11.175 27.363 14.625 41.785 8.767 29.299-11.9 77.245-37.66 104.151-85.839z" fill="#2ddfb6"/><path d="m36.458 297.7s-.815 27.187-23.359 71.832c-7.357 14.568-4.774 32.183 6.588 43.899 8.301 8.56 19.938 12.567 31.413 11.351-.476-.443-.956-.88-1.413-1.351-11.362-11.716-13.944-29.331-6.588-43.899 22.544-44.645 23.359-71.832 23.359-71.832z" fill="#00c070"/><path d="m460.542 297.7s.815 27.187 23.359 71.832c7.357 14.568 4.774 32.183-6.588 43.899-10.837 11.175-27.363 14.625-41.785 8.767-29.299-11.9-77.245-37.66-104.151-85.839z" fill="#2ddfb6"/><path d="m26.381 243.221s24.557-100.565 116.247-123.506v132.931l-36.798 30.25h-38.14z" fill="#e7896e"/><path d="m56.381 243.221s19.06-78 86.247-112.279v-11.227c-91.691 22.941-116.247 123.506-116.247 123.506z" fill="#dd6642"/><path d="m470.619 243.221s-24.557-100.565-116.247-123.506v132.931l36.798 30.25h38.14z" fill="#e7896e"/><path d="m40.835 233.636c-10.955-5.48-24.274-1.688-30.708 8.736l-6.596 10.687c-7.283 11.799-2.902 27.288 9.472 33.546 35.067 17.736 107.589 48.79 194.722 54.539l3.934-59.629c-75.728-4.997-140.224-32.572-170.824-47.879z" fill="#dcdcdc"/><path d="m28.194 265.74 6.806-11.878c4.514-7.878 12.606-12.524 21.136-12.939-5.753-2.612-10.89-5.079-15.301-7.286-10.955-5.48-24.274-1.688-30.708 8.735l-6.596 10.687c-7.283 11.8-2.902 27.288 9.472 33.546 5.155 2.607 11.14 5.507 17.842 8.567-6.73-8.003-8.223-19.706-2.651-29.432z" fill="#bab8bf"/><path d="m456.165 233.636c10.955-5.48 24.274-1.688 30.708 8.736l6.596 10.687c7.283 11.799 2.902 27.288-9.472 33.546-35.067 17.736-107.589 48.79-194.722 54.539l-3.934-59.629c75.728-4.997 140.224-32.572 170.824-47.879z" fill="#dcdcdc"/><path d="m248.5 71.986c-84.278 0-152.599 78.739-152.599 163.017s68.321 119.232 152.599 119.232 152.599-34.955 152.599-119.233-68.321-163.016-152.599-163.016z" fill="#2ddfb6"/><path d="m125.901 235.003c0-79.216 60.362-153.531 137.599-162.173-4.935-.552-9.938-.844-15-.844-84.278 0-152.599 78.739-152.599 163.017s68.321 119.232 152.599 119.232c5.062 0 10.065-.129 15-.385-77.237-3.995-137.599-39.631-137.599-118.847z" fill="#00c070"/><ellipse cx="165.623" cy="276.998" fill="#ffa1ac" rx="30.58" ry="24.352"/><ellipse cx="331.377" cy="276.998" fill="#ffa1ac" rx="30.58" ry="24.352"/><g fill="#423c4d"><path d="m198 257.998c-4.143 0-7.5-3.358-7.5-7.5 0-3.89-3.165-7.055-7.056-7.055s-7.056 3.165-7.056 7.055c0 4.142-3.357 7.5-7.5 7.5s-7.5-3.358-7.5-7.5c0-12.161 9.895-22.055 22.056-22.055s22.056 9.894 22.056 22.055c0 4.143-3.357 7.5-7.5 7.5z"/><path d="m328.111 257.998c-4.143 0-7.5-3.358-7.5-7.5 0-3.89-3.165-7.055-7.056-7.055s-7.056 3.165-7.056 7.055c0 4.142-3.357 7.5-7.5 7.5s-7.5-3.358-7.5-7.5c0-12.161 9.895-22.055 22.056-22.055s22.056 9.894 22.056 22.055c0 4.143-3.358 7.5-7.5 7.5z"/><path d="m248.5 282.045c-8.084 0-15.772-3.501-21.094-9.606-2.722-3.122-2.397-7.86.726-10.582 3.122-2.722 7.86-2.397 10.581.726 2.472 2.836 6.039 4.462 9.787 4.462s7.314-1.626 9.785-4.461c2.72-3.123 7.457-3.448 10.582-.727 3.122 2.721 3.448 7.459.727 10.582-5.32 6.104-13.009 9.606-21.094 9.606z"/></g></svg>