<?xml version="1.0" encoding="iso-8859-1"?>
<!-- Generator: Adobe Illustrator 19.0.0, SVG Export Plug-In . SVG Version: 6.00 Build 0)  -->
<svg version="1.1" id="Capa_1" xmlns="http://www.w3.org/2000/svg" xmlns:xlink="http://www.w3.org/1999/xlink" x="0px" y="0px"
	 viewBox="0 0 512 512" style="enable-background:new 0 0 512 512;" xml:space="preserve">
<g>
	<g>
		<circle cx="154.05" cy="262.221" r="10.883"/>
	</g>
</g>
<g>
	<g>
		<path d="M509.201,54.286c-2.01-7.676-9.899-12.346-17.581-10.41c-10.629,2.676-29.439,9.668-43,27.18
			c-13.56-17.512-32.37-24.504-42.999-27.18c-7.68-1.933-15.571,2.735-17.581,10.41c-3.069,11.709-6.335,34.705,6.253,57.155
			c0.056,0.1,0.114,0.198,0.174,0.294c5.864,9.423,13.846,17.257,23.733,23.292c-5.85,30.004-25.803,51.829-59.312,64.873
			c-25.278,9.84-49.351,10.845-50.858,10.898h-77.501c-4.14,0-7.495,3.356-7.495,7.496c0,4.14,3.355,7.496,7.495,7.496h77.617
			c0.063,0,0.126-0.001,0.189-0.002c1.098-0.028,27.211-0.805,55.577-11.756c38.498-14.862,62.391-41.358,69.096-76.623
			c1.119-5.882-1.571-11.906-6.69-14.99c-7.962-4.799-14.365-11.01-19.032-18.458c-9.761-17.536-7.313-35.804-4.86-45.427
			c9.621,2.494,26.8,9.158,37.455,26.162c0.645,1.16,1.276,2.418,1.926,3.836c1.221,2.666,3.883,4.375,6.815,4.375
			c0,0,0.001,0,0.002,0c2.933-0.001,5.595-1.712,6.815-4.379c0.646-1.414,1.277-2.669,1.923-3.833
			c10.655-17.004,27.833-23.669,37.454-26.163c2.452,9.625,4.899,27.894-4.859,45.428c-5.534,8.83-13.439,15.868-23.501,20.92
			c-4.897,2.459-7.939,7.409-7.939,12.917v78.253c0,60.494-23.679,117.814-66.676,161.401c-5.382,5.456-10.988,10.592-16.781,15.427
			c-7.546-10.808-17.512-21.39-30.687-30.172c-0.095-0.063-0.191-0.124-0.289-0.183c-42.955-25.887-88.245-15.137-101.638-11.034
			l-13.657-13.729c-29.117-29.269-69.493-46.055-110.777-46.055H16.885c-4.078-14.954-1.394-30.588,7.653-43.513
			c9.965-14.238,25.64-22.403,43.007-22.403h117.011c4.14,0,7.495-3.356,7.495-7.496s-3.355-7.496-7.495-7.496H67.546
			c-21.999,0-42.667,10.766-55.289,28.798c-12.763,18.234-15.719,40.665-8.112,61.542c21.129,57.984,63.158,105.288,118.345,133.2
			c1.084,0.549,2.239,0.809,3.377,0.808c2.737,0,5.375-1.505,6.694-4.114c1.869-3.694,0.389-8.203-3.306-10.072
			c-48.339-24.448-85.911-64.756-106.816-114.264h95.572c37.324,0,73.827,15.176,100.149,41.637l16.083,16.167
			c1.78,12.287,9.479,49.086,39.849,76.66c-13.86,2.694-28.046,4.094-42.426,4.101h-0.119c-20.561,0-40.937-2.748-60.562-8.168
			c-3.99-1.103-8.118,1.24-9.22,5.23c-1.102,3.99,1.24,8.119,5.23,9.221c20.925,5.779,42.642,8.708,64.552,8.708h0.127
			c19.843-0.01,39.342-2.479,58.177-7.246c20.869,12.005,42.225,15.556,60.116,15.556c16.006,0,29.238-2.823,36.846-4.919
			c7.225-1.99,11.708-9.06,10.428-16.445c-1.532-8.835-5.315-24.633-14.269-41.404c6.767-5.545,13.293-11.483,19.541-17.816
			c22.22-22.526,39.688-48.656,51.917-77.664c12.66-30.031,19.078-61.747,19.078-94.266V138.11
			c12.464-6.326,22.31-15.199,29.267-26.378c0.059-0.097,0.118-0.195,0.174-0.295C515.534,88.993,512.269,65.996,509.201,54.286z
			 M295.726,439.1c-33.78-22.6-43.572-59.729-46.169-74.038c14.018-3.78,51.654-10.79,86.642,10.214
			c33.708,22.553,43.506,58.936,46.192,74.036C367.586,453.321,330.499,459.973,295.726,439.1z"/>
	</g>
</g>
<g>
	<g>
		<path d="M156.302,80.854c-11.835,0-22.372,5.639-29.084,14.365c-6.712-8.726-17.249-14.365-29.084-14.365
			c-20.227,0-36.683,16.456-36.683,36.683V134.2c-0.001,4.14,3.355,7.496,7.495,7.496c4.14,0,7.496-3.356,7.496-7.496v-16.663
			c0-11.961,9.732-21.692,21.692-21.692c11.175,0,20.401,8.495,21.566,19.366c-0.048,0.77-0.081,63.368-0.081,63.368
			c0,4.14,3.355,7.496,7.495,7.496c0.035,0,0.069-0.005,0.104-0.005c0.035,0,0.069,0.005,0.104,0.005
			c4.14,0,7.496-3.356,7.496-7.496c0,0-0.033-62.598-0.082-63.368c1.165-10.871,10.391-19.366,21.566-19.366
			c11.961,0,21.692,9.731,21.692,21.692V134.2c0,4.14,3.355,7.496,7.496,7.496s7.495-3.356,7.495-7.496v-16.663
			C192.985,97.31,176.529,80.854,156.302,80.854z"/>
	</g>
</g>
<g>
</g>
<g>
</g>
<g>
</g>
<g>
</g>
<g>
</g>
<g>
</g>
<g>
</g>
<g>
</g>
<g>
</g>
<g>
</g>
<g>
</g>
<g>
</g>
<g>
</g>
<g>
</g>
<g>
</g>
</svg>
