<?xml version="1.0" encoding="utf-8"?>
<!-- Generator: Adobe Illustrator 16.0.0, SVG Export Plug-In . SVG Version: 6.00 Build 0)  -->
<!DOCTYPE svg PUBLIC "-//W3C//DTD SVG 1.1//EN" "http://www.w3.org/Graphics/SVG/1.1/DTD/svg11.dtd">
<svg version="1.1" id="Capa_1" xmlns="http://www.w3.org/2000/svg" xmlns:xlink="http://www.w3.org/1999/xlink" x="0px" y="0px"
	 width="1024px" height="768px" viewBox="0 0 1024 768" enable-background="new 0 0 1024 768" xml:space="preserve">
<g>
	<g>
		<circle fill="#FFFFFF" stroke="#FFFFFF" stroke-width="11" stroke-miterlimit="10" cx="359.075" cy="393.332" r="16.325"/>
	</g>
</g>
<g>
	<g>
		<path fill="#FFFFFF" stroke="#FFFFFF" stroke-width="11" stroke-miterlimit="10" d="M891.802,81.429
			c-3.016-11.514-14.849-18.519-26.372-15.615c-15.943,4.014-44.158,14.502-64.5,40.77c-20.34-26.268-48.555-36.756-64.498-40.77
			c-11.521-2.899-23.356,4.103-26.372,15.615c-4.604,17.563-9.502,52.057,9.38,85.732c0.084,0.15,0.171,0.297,0.261,0.441
			c8.796,14.134,20.77,25.885,35.6,34.938c-8.774,45.006-38.704,77.744-88.968,97.309c-37.917,14.761-74.026,16.268-76.287,16.348
			H473.794c-6.211,0-11.243,5.034-11.243,11.244s5.032,11.243,11.243,11.243h116.425c0.095,0,0.189-0.001,0.284-0.003
			c1.646-0.042,40.816-1.207,83.365-17.634c57.747-22.293,93.586-62.037,103.644-114.935c1.679-8.823-2.356-17.859-10.035-22.485
			c-11.942-7.198-21.547-16.515-28.548-27.687c-14.642-26.304-10.969-53.706-7.29-68.141c14.432,3.741,40.2,13.737,56.183,39.243
			c0.968,1.74,1.914,3.627,2.889,5.754c1.832,3.999,5.825,6.563,10.223,6.563c0,0,0.002,0,0.003,0
			c4.4-0.001,8.393-2.568,10.223-6.568c0.97-2.121,1.916-4.003,2.885-5.75c15.982-25.506,41.749-35.503,56.181-39.245
			c3.679,14.438,7.349,41.841-7.288,68.142c-8.301,13.245-20.158,23.802-35.252,31.38c-7.345,3.688-11.908,11.114-11.908,19.375
			v117.38c0,90.741-35.519,176.721-100.014,242.102c-8.073,8.184-16.482,15.888-25.172,23.141
			c-11.319-16.213-26.268-32.085-46.03-45.259c-0.143-0.094-0.287-0.186-0.434-0.274c-64.433-38.83-132.367-22.705-152.457-16.551
			l-20.485-20.594c-43.676-43.903-104.24-69.082-166.166-69.082h-151.69c-6.117-22.431-2.091-45.882,11.479-65.27
			c14.947-21.357,38.46-33.604,64.51-33.604h175.517c6.21,0,11.243-5.034,11.243-11.244s-5.033-11.244-11.243-11.244H229.319
			c-32.999,0-64,16.149-82.933,43.197c-19.145,27.351-23.579,60.997-12.168,92.313c31.694,86.977,94.737,157.933,177.518,199.801
			c1.626,0.823,3.359,1.213,5.065,1.212c4.106,0,8.063-2.258,10.041-6.171c2.804-5.541,0.583-12.305-4.959-15.108
			c-72.508-36.672-128.866-97.134-160.224-171.396h143.358c55.986,0,110.74,22.765,150.224,62.456l24.124,24.25
			c2.67,18.431,14.219,73.629,59.773,114.99c-20.79,4.041-42.068,6.142-63.639,6.151h-0.179c-30.842,0-61.405-4.122-90.843-12.252
			c-5.985-1.654-12.177,1.86-13.83,7.846c-1.653,5.984,1.86,12.178,7.845,13.831c31.387,8.669,63.962,13.063,96.828,13.063h0.19
			c29.765-0.016,59.014-3.719,87.266-10.869c31.304,18.007,63.338,23.334,90.174,23.334c24.01,0,43.857-4.234,55.27-7.379
			c10.837-2.985,17.562-13.59,15.642-24.667c-2.298-13.253-7.973-36.95-21.403-62.106c10.15-8.317,19.939-17.225,29.312-26.724
			c33.33-33.789,59.532-72.984,77.876-116.496c18.989-45.047,28.616-92.621,28.616-141.399V207.165
			c18.696-9.489,33.465-22.798,43.9-39.567c0.089-0.146,0.178-0.292,0.262-0.443C901.301,133.489,896.403,98.994,891.802,81.429z
			 M571.589,658.65c-50.67-33.9-65.357-89.594-69.253-111.058c21.026-5.67,77.48-16.185,129.963,15.321
			c50.562,33.829,65.259,88.404,69.288,111.054C679.379,679.981,623.748,689.96,571.589,658.65z"/>
	</g>
</g>
<g>
	<g>
		<path fill="#FFFFFF" stroke="#FFFFFF" stroke-width="11" stroke-miterlimit="10" d="M362.453,121.281
			c-17.752,0-33.558,8.458-43.626,21.547c-10.068-13.089-25.874-21.547-43.626-21.547c-30.341,0-55.024,24.684-55.024,55.024V201.3
			c-0.002,6.21,5.032,11.244,11.242,11.244s11.244-5.034,11.244-11.244v-24.994c0-17.941,14.598-32.538,32.538-32.538
			c16.762,0,30.602,12.742,32.349,29.049c-0.072,1.155-0.121,95.052-0.121,95.052c0,6.21,5.032,11.244,11.242,11.244
			c0.053,0,0.104-0.007,0.156-0.007c0.052,0,0.104,0.007,0.156,0.007c6.21,0,11.244-5.034,11.244-11.244
			c0,0-0.049-93.897-0.123-95.052c1.748-16.307,15.586-29.049,32.349-29.049c17.941,0,32.538,14.597,32.538,32.538V201.3
			c0,6.21,5.032,11.244,11.244,11.244s11.243-5.034,11.243-11.244v-24.994C417.478,145.965,392.793,121.281,362.453,121.281z"/>
	</g>
</g>
</svg>
