<?xml version="1.0" encoding="utf-8"?>
<!-- Generator: Adobe Illustrator 16.0.0, SVG Export Plug-In . SVG Version: 6.00 Build 0)  -->
<!DOCTYPE svg PUBLIC "-//W3C//DTD SVG 1.1//EN" "http://www.w3.org/Graphics/SVG/1.1/DTD/svg11.dtd">
<svg version="1.1" id="Capa_1" xmlns="http://www.w3.org/2000/svg" xmlns:xlink="http://www.w3.org/1999/xlink" x="0px" y="0px"
	 width="800px" height="100px" viewBox="-350 0 800 100" enable-background="new -350 0 800 100" xml:space="preserve">
<path fill="#CCF2FE" d="M416.672,30.167c-20,0-40-0.417-50,2.083c-26.672,5.833-90,7.917-136.672,4.583
	c-16.672-1.25-26.672-2.5-36.672-4.583c-13.328-2.917-50-2.917-63.328,0c-26.672,5.833-90,7.917-136.668,4.583
	c-16.668-1.25-26.668-2.5-36.668-4.583c-10-2.917-43.332-2.5-56.663,0c-26.668,5.833-90,7.917-136.668,4.583
	c-26.667-1.667-36.667-6.25-63.332-6.667c-23.332-0.417-50,0.833-50,4.167v45.834c0,2.5,13.332,4.166,33.332,4.166h733.332
	c20,0,33.337-1.666,33.337-4.166V34.334C450,31.834,436.672,30.167,416.672,30.167z"/>
<linearGradient id="SVGID_1_" gradientUnits="userSpaceOnUse" x1="-24.8311" y1="-376.7358" x2="75.0303" y2="-476.5972" gradientTransform="matrix(4.1667 0 0 4.1667 -54.5882 1857.9469)">
	<stop  offset="0" style="stop-color:#34CDFA"/>
	<stop  offset="1" style="stop-color:#E8D9F1"/>
</linearGradient>
<path fill="url(#SVGID_1_)" d="M416.672,59.334h-20c-13.335,0-23.335,0.834-30,2.084c-26.672,5.833-90,7.916-136.672,4.583
	c-16.672-1.25-26.672-2.5-36.672-4.583c-13.328-2.917-50-2.917-63.328,0c-26.672,5.833-90,7.916-136.668,4.583
	C-30,64.334-43.332,59.334-73.332,59.334c10,0-6.668,0-10,0.416C-90,60.167-96.663,60.584-100,61.417
	c-26.668,5.833-90,7.917-136.668,4.583c-26.667-1.666-36.667-6.25-66.667-6.666C-326.668,58.918-350,60.168-350,63.5v33.334
	c0,2.5,13.332,4.166,33.332,4.166h733.332c20,0,33.337-1.666,33.337-4.166V63.5C450,61,436.672,59.334,416.672,59.334z"/>
</svg>
