<svg xmlns="http://www.w3.org/2000/svg" width="162" height="146" viewBox="0 0 162 146">
  <g id="组_247" data-name="组 247" transform="translate(-236 -5021)">
    <g id="组_243" data-name="组 243" transform="translate(236 5021)">
      <rect id="矩形_78" data-name="矩形 78" width="162" height="146" rx="20" fill="#7cd3cd"/>
    </g>
    <g id="question-circle-regular" transform="translate(-91.036 4921.501)">
      <path id="路径_315" data-name="路径 315" d="M442.534,152.3c0,22.5-24.3,22.847-24.3,31.162v2.127a4.027,4.027,0,0,1-4.027,4.027H398.888a4.027,4.027,0,0,1-4.027-4.027V182.68c0-11.995,9.094-16.79,15.966-20.643,5.893-3.3,9.5-5.551,9.5-9.926,0-5.787-7.382-9.629-13.351-9.629-7.781,0-11.374,3.684-16.423,10.056a4.029,4.029,0,0,1-5.592.713l-9.337-7.08a4.036,4.036,0,0,1-.887-5.491c7.928-11.642,18.027-18.183,33.75-18.183C424.958,122.5,442.534,135.353,442.534,152.3Z" transform="translate(0)" fill="#fff"/>
      <path id="路径_316" data-name="路径 316" d="M462.25,370.656a14.094,14.094,0,1,1-14.094-14.094A14.11,14.11,0,0,1,462.25,370.656Z" transform="translate(-41.609 -162.251)" fill="#fff"/>
    </g>
  </g>
</svg>
