<?xml version="1.0" encoding="utf-8"?>
<!-- Generator: Adobe Illustrator 16.0.0, SVG Export Plug-In . SVG Version: 6.00 Build 0)  -->
<!DOCTYPE svg PUBLIC "-//W3C//DTD SVG 1.1//EN" "http://www.w3.org/Graphics/SVG/1.1/DTD/svg11.dtd">
<svg version="1.1" id="圖層_1" xmlns="http://www.w3.org/2000/svg" xmlns:xlink="http://www.w3.org/1999/xlink" x="0px" y="0px"
	 width="105px" height="100px" viewBox="28.5 23 105 100" enable-background="new 28.5 23 105 100" xml:space="preserve">
<g id="组_247" transform="translate(-236 -5021)">
	<g id="组_243" transform="translate(236 5021)">
		<path id="矩形_78" fill="#7CD3CD" d="M43.346,27.938h75.309c6.818,0,12.346,5.527,12.346,12.346v65.432
			c0,6.818-5.527,12.346-12.346,12.346H43.346c-6.818,0-12.346-5.527-12.346-12.346V40.284C31,33.465,36.527,27.938,43.346,27.938z"
			/>
	</g>
	<g id="question-circle-regular" transform="translate(-91.036 4921.501)">
		<path id="路径_315" fill="#FFFFFF" d="M429.331,160.03c0,13.889-15,14.104-15,19.236v1.313c0,1.373-1.113,2.486-2.485,2.486l0,0
			h-9.457c-1.373,0-2.486-1.113-2.486-2.486l0,0v-1.795c0-7.405,5.614-10.365,9.855-12.743c3.638-2.037,5.864-3.427,5.864-6.127
			c0-3.572-4.557-5.944-8.241-5.944c-4.803,0-7.021,2.274-10.138,6.208c-0.839,1.062-2.373,1.257-3.452,0.44l-5.763-4.371
			c-1.056-0.804-1.297-2.294-0.547-3.389c4.894-7.187,11.127-11.224,20.833-11.224C418.481,141.635,429.331,149.569,429.331,160.03z
			"/>
		<path id="路径_316" fill="#FFFFFF" d="M415.817,194.663c0,4.805-3.896,8.7-8.701,8.7c-4.805,0-8.7-3.896-8.7-8.7
			s3.895-8.699,8.7-8.699l0,0C411.92,185.969,415.811,189.86,415.817,194.663z"/>
	</g>
</g>
</svg>
