<?xml version="1.0" encoding="utf-8"?>
<!-- Generator: Adobe Illustrator 16.0.0, SVG Export Plug-In . SVG Version: 6.00 Build 0)  -->
<!DOCTYPE svg PUBLIC "-//W3C//DTD SVG 1.1//EN" "http://www.w3.org/Graphics/SVG/1.1/DTD/svg11.dtd">
<svg version="1.1" id="圖層_1" xmlns="http://www.w3.org/2000/svg" xmlns:xlink="http://www.w3.org/1999/xlink" x="0px" y="0px"
	 width="105px" height="100px" viewBox="28.5 23 105 100" enable-background="new 28.5 23 105 100" xml:space="preserve">
<g id="组_289" transform="translate(-236 -3999)">
	<g id="组_243" transform="translate(-15936 -363)">
		<path id="矩形_78" fill="#7CD3CD" d="M16215.346,4389.938h75.309c6.818,0,12.346,5.527,12.346,12.346v65.432
			c0,6.818-5.527,12.346-12.346,12.346h-75.309c-6.818,0-12.346-5.527-12.346-12.346v-65.432
			C16203,4395.465,16208.527,4389.938,16215.346,4389.938z"/>
	</g>
	<g id="defa2bcea2515ef2450ea0bfa0f4f00f" transform="translate(-179.192 6258.708)">
		<path id="路径_311" fill="#FFFFFF" d="M495.259-2220.03c-0.098,0.007-0.408,0.04-0.686,0.072
			c-4.282,0.472-8.14,2.803-10.549,6.374c-1.393,2.07-2.24,4.458-2.462,6.943c-0.05,0.841-0.05,1.685,0,2.526
			c0.261,3.032,1.458,5.908,3.426,8.229c0.148,0.177,0.537,0.592,0.864,0.92c2.321,2.318,5.354,3.789,8.612,4.176
			c1.183,0.1,2.373,0.095,3.555-0.018c2.706-0.339,5.263-1.427,7.381-3.144c0.801-0.683,1.546-1.429,2.228-2.23
			c1.797-2.237,2.899-4.951,3.173-7.807c0.066-0.979,0.061-1.962-0.018-2.941c-0.182-1.667-0.646-3.292-1.372-4.804
			c-2.191-4.552-6.568-7.659-11.59-8.225C496.968-2220.026,496.114-2220.05,495.259-2220.03z"/>
		<path id="路径_312" fill="#FFFFFF" d="M494.935-2187.348c-9.208,0.267-17.84,4.536-23.642,11.69
			c-1.807,2.293-3.252,4.849-4.284,7.58c-1.142,3.051-1.71,6.288-1.675,9.546c-0.036,0.58,0.04,1.16,0.224,1.711
			c0.234,0.741,0.648,1.413,1.206,1.956c0.726,0.738,1.67,1.223,2.692,1.382c0.329,0.055,1.491,0.063,13.589,0.051l13.228-0.011
			l0.366-0.098c0.912-0.218,1.744-0.691,2.399-1.363c0.663-0.679,1.115-1.535,1.303-2.466c0.113-0.641,0.111-1.297-0.004-1.938
			c-0.351-1.702-1.573-3.094-3.216-3.66c-0.79-0.264-0.631-0.247-3.602-0.264l-2.678-0.014l0.021-0.152
			c0.094-0.751,0.312-1.481,0.646-2.16c0.892-1.823,2.585-3.125,4.576-3.52c0.683-0.117,1.377-0.148,2.068-0.089
			c1.038,0.122,2.032,0.488,2.901,1.068c0.361,0.241,6.76,5.547,7.208,5.977c1.065,1.008,1.75,2.352,1.938,3.805
			c0.033,0.217,0.063,0.454,0.065,0.523l0.011,0.123l0.668-0.007c3.545-0.047,8.861-0.224,11.568-0.387
			c2.815-0.17,4.457-0.39,4.541-0.61c0.025-0.064-0.036-1.765-0.083-2.277c-0.441-5.091-2.305-9.956-5.378-14.039
			c-0.842-1.146-1.776-2.223-2.794-3.217c-1.473-1.491-3.103-2.818-4.861-3.959c-4.959-3.218-10.708-5.011-16.617-5.185
			C496.292-2187.395,496.061-2187.388,494.935-2187.348z M487.446-2178.959c2.288,0.376,4.212,1.924,5.071,4.077
			c0.168,0.452,0.298,0.916,0.386,1.39c0.063,0.685,0.063,1.374,0,2.058c-0.107,0.634-0.304,1.249-0.584,1.826
			c-1.579,3.28-5.517,4.658-8.796,3.08c-0.206-0.1-0.407-0.21-0.602-0.33c-1.525-0.956-2.599-2.488-2.978-4.247
			c-0.182-0.896-0.183-1.819-0.004-2.717c0.362-1.667,1.351-3.131,2.761-4.09c0.82-0.561,1.759-0.925,2.743-1.061
			c0.18-0.021,0.365-0.047,0.415-0.055c0.53-0.018,1.062,0.004,1.588,0.066V-2178.959z"/>
	</g>
</g>
</svg>
