<svg xmlns="http://www.w3.org/2000/svg" width="162" height="146" viewBox="0 0 162 146">
  <g id="组_289" data-name="组 289" transform="translate(-236 -3999)">
    <g id="组_243" data-name="组 243" transform="translate(-15936 -363)">
      <rect id="矩形_78" data-name="矩形 78" width="162" height="146" rx="20" transform="translate(16172 4362)" fill="#7cd3cd"/>
    </g>
    <g id="defa2bcea2515ef2450ea0bfa0f4f00f" transform="translate(-179.192 6258.708)">
      <path id="路径_311" data-name="路径 311" d="M917.2-2240.69c-.158.011-.661.064-1.111.117A23.752,23.752,0,0,0,899-2230.248,23.954,23.954,0,0,0,895.011-2219a34.115,34.115,0,0,0,0,4.093,23.763,23.763,0,0,0,5.549,13.331c.24.287.871.959,1.4,1.491a23.7,23.7,0,0,0,13.951,6.765,32.132,32.132,0,0,0,5.759-.029,23.664,23.664,0,0,0,11.957-5.093,31.919,31.919,0,0,0,3.608-3.613,23.814,23.814,0,0,0,5.14-12.647,32.423,32.423,0,0,0-.029-4.765,23.93,23.93,0,0,0-2.222-7.782,23.8,23.8,0,0,0-18.775-13.325A40.259,40.259,0,0,0,917.2-2240.69Z" transform="translate(-422.519 0)" fill="#fff"/>
      <path id="路径_312" data-name="路径 312" d="M494.156-1335.725a51.217,51.217,0,0,0-38.3,18.938,46.212,46.212,0,0,0-6.94,12.279,42.812,42.812,0,0,0-2.713,15.465,7.333,7.333,0,0,0,.362,2.771,7.651,7.651,0,0,0,1.953,3.169,7.8,7.8,0,0,0,4.362,2.24c.532.088,2.415.1,22.014.082l21.429-.018.591-.158a8.049,8.049,0,0,0,3.888-2.21,7.974,7.974,0,0,0,2.111-3.993,8.991,8.991,0,0,0-.006-3.14,7.976,7.976,0,0,0-5.21-5.929c-1.28-.427-1.023-.4-5.835-.427l-4.339-.023.035-.246a11,11,0,0,1,1.047-3.5,10.526,10.526,0,0,1,7.414-5.7,13.162,13.162,0,0,1,3.35-.146,10.742,10.742,0,0,1,4.7,1.731c.585.392,10.951,8.987,11.677,9.683a10.311,10.311,0,0,1,3.14,6.163c.053.351.1.737.105.848l.018.2,1.082-.012c5.742-.076,14.354-.362,18.74-.626,4.561-.275,7.221-.631,7.356-.988.041-.105-.058-2.859-.134-3.689a44.152,44.152,0,0,0-8.712-22.745,42.347,42.347,0,0,0-4.526-5.21,47.046,47.046,0,0,0-7.876-6.414,52.28,52.28,0,0,0-26.92-8.4C496.354-1335.8,495.98-1335.79,494.156-1335.725Zm-12.133,13.589a10.722,10.722,0,0,1,8.215,6.607,13.567,13.567,0,0,1,.626,2.251,18.131,18.131,0,0,1,0,3.333,10.945,10.945,0,0,1-.947,2.959,10.676,10.676,0,0,1-15.226,4.455,10.81,10.81,0,0,1-4.824-6.882,11.161,11.161,0,0,1-.006-4.4,10.774,10.774,0,0,1,4.473-6.625,10.4,10.4,0,0,1,4.444-1.719c.292-.035.591-.076.672-.088A16.88,16.88,0,0,1,482.023-1322.137Z" transform="translate(0 -852.02)" fill="#fff"/>
    </g>
  </g>
</svg>
