<svg xmlns="http://www.w3.org/2000/svg" width="162" height="146" viewBox="0 0 162 146">
  <g id="组_243" data-name="组 243" transform="translate(-16172 -4362)">
    <rect id="矩形_78" data-name="矩形 78" width="162" height="146" rx="20" transform="translate(16172 4362)" fill="#7cd3cd"/>
    <path id="info-solid" d="M4.219,89.486H8.438V59.014H4.219A4.219,4.219,0,0,1,0,54.8V44.719A4.219,4.219,0,0,1,4.219,40.5H27.844a4.219,4.219,0,0,1,4.219,4.219V89.486h4.219A4.219,4.219,0,0,1,40.5,93.7v10.077A4.219,4.219,0,0,1,36.281,108H4.219A4.219,4.219,0,0,1,0,103.781V93.7A4.219,4.219,0,0,1,4.219,89.486ZM20.25,0A15.188,15.188,0,1,0,35.438,15.188,15.187,15.187,0,0,0,20.25,0Z" transform="translate(16233 4381)" fill="#fff"/>
  </g>
</svg>
