<?xml version="1.0" encoding="utf-8"?>
<!-- Generator: Adobe Illustrator 16.0.0, SVG Export Plug-In . SVG Version: 6.00 Build 0)  -->
<!DOCTYPE svg PUBLIC "-//W3C//DTD SVG 1.1//EN" "http://www.w3.org/Graphics/SVG/1.1/DTD/svg11.dtd">
<svg version="1.1" id="圖層_1" xmlns="http://www.w3.org/2000/svg" xmlns:xlink="http://www.w3.org/1999/xlink" x="0px" y="0px"
	 width="105px" height="100px" viewBox="28.5 23 105 100" enable-background="new 28.5 23 105 100" xml:space="preserve">
<g id="组_243" transform="translate(-16172 -4362)">
	<path id="矩形_78" fill="#7CD3CD" d="M16215.346,4389.938h75.309c6.818,0,12.346,5.527,12.346,12.346v65.432
		c0,6.818-5.527,12.346-12.346,12.346h-75.309c-6.818,0-12.346-5.527-12.346-12.346v-65.432
		C16203,4395.465,16208.527,4389.938,16215.346,4389.938z"/>
	<path id="info-solid" fill="#FFFFFF" d="M16243.259,4456.905h2.604v-18.811h-2.604c-1.438,0-2.603-1.164-2.604-2.601v-6.223
		c0-1.438,1.166-2.604,2.604-2.604c0.001,0,0.001,0,0.001,0h14.583c1.438,0,2.604,1.167,2.604,2.604l0,0v27.634h2.604
		c1.437,0,2.602,1.164,2.604,2.601v6.221c0.001,1.438-1.163,2.605-2.602,2.606c-0.001,0-0.002,0-0.003,0h-19.791
		c-1.438,0-2.604-1.165-2.604-2.604l0,0v-6.224C16240.656,4458.069,16241.821,4456.905,16243.259,4456.905z M16253.154,4401.667
		c-5.178,0-9.375,4.198-9.375,9.375s4.197,9.375,9.375,9.375s9.375-4.198,9.375-9.375c0.001-5.178-4.196-9.375-9.373-9.375
		C16253.155,4401.667,16253.154,4401.667,16253.154,4401.667z"/>
</g>
</svg>
