<svg xmlns="http://www.w3.org/2000/svg" width="162" height="146" viewBox="0 0 162 146">
  <g id="组_288" data-name="组 288" transform="translate(-236 -3737)">
    <g id="组_243" data-name="组 243" transform="translate(-15936 -625)">
      <rect id="矩形_78" data-name="矩形 78" width="162" height="146" rx="20" transform="translate(16172 4362)" fill="#7cd3cd"/>
    </g>
    <g id="_24px_4_" data-name="24px (4)" transform="translate(258 3751)">
      <path id="路径_309" data-name="路径 309" d="M0,0H118V118H0Z" fill="none"/>
      <path id="路径_310" data-name="路径 310" d="M91.5,25.583H71.833a24.583,24.583,0,1,0-49.167,0H3V104.25H91.5ZM47.25,10.833A14.73,14.73,0,0,1,62,25.583H32.5A14.73,14.73,0,0,1,47.25,10.833ZM47.25,60A24.592,24.592,0,0,1,22.667,35.417H32.5a14.75,14.75,0,0,0,29.5,0h9.833A24.592,24.592,0,0,1,47.25,60Z" transform="translate(11.75 3.917)" fill="#fff"/>
    </g>
  </g>
</svg>
