<?xml version="1.0" encoding="utf-8"?>
<!-- Generator: Adobe Illustrator 16.0.0, SVG Export Plug-In . SVG Version: 6.00 Build 0)  -->
<!DOCTYPE svg PUBLIC "-//W3C//DTD SVG 1.1//EN" "http://www.w3.org/Graphics/SVG/1.1/DTD/svg11.dtd">
<svg version="1.1" id="圖層_1" xmlns="http://www.w3.org/2000/svg" xmlns:xlink="http://www.w3.org/1999/xlink" x="0px" y="0px"
	 width="105px" height="100px" viewBox="28.5 23 105 100" enable-background="new 28.5 23 105 100" xml:space="preserve">
<g id="组_288" transform="translate(-236 -3737)">
	<g id="组_243" transform="translate(-15936 -625)">
		<path id="矩形_78" fill="#7CD3CD" d="M16215.346,4389.938h75.309c6.818,0,12.346,5.527,12.346,12.346v65.432
			c0,6.818-5.527,12.346-12.346,12.346h-75.309c-6.818,0-12.346-5.527-12.346-12.346v-65.432
			C16203,4395.465,16208.527,4389.938,16215.346,4389.938z"/>
	</g>
	<g id="_24px_4_" transform="translate(258 3751)">
		<path id="路径_309" fill="none" d="M22.58,22.58h72.84v72.84H22.58V22.58z"/>
		<path id="路径_310" fill="#FFFFFF" d="M86.314,40.79h-12.14c0-8.381-6.795-15.175-15.175-15.175
			c-8.381,0-15.175,6.794-15.175,15.175h-12.14v48.56h54.629V40.79z M59,31.685c5.021-0.007,9.098,4.059,9.104,9.081
			c0,0.008,0,0.017,0,0.024H49.895c-0.007-5.021,4.059-9.098,9.08-9.105C58.983,31.685,58.992,31.685,59,31.685z M59,62.035
			c-8.379-0.003-15.172-6.795-15.175-15.175h6.07c0,5.028,4.077,9.105,9.105,9.105s9.104-4.077,9.104-9.105h6.07
			C74.172,55.24,67.379,62.032,59,62.035z"/>
	</g>
</g>
</svg>
