<svg xmlns="http://www.w3.org/2000/svg" width="162" height="146" viewBox="0 0 162 146">
  <g id="组_291" data-name="组 291" transform="translate(-236 -4261)">
    <g id="组_290" data-name="组 290">
      <g id="组_243" data-name="组 243" transform="translate(-15936 -101)">
        <rect id="矩形_78" data-name="矩形 78" width="162" height="146" rx="20" transform="translate(16172 4362)" fill="#7cd3cd"/>
      </g>
      <path id="microscope-solid" d="M31.25,62.5h2.344v3.125a3.124,3.124,0,0,0,3.125,3.125h7.813a3.124,3.124,0,0,0,3.125-3.125V62.5H50a6.251,6.251,0,0,0,6.25-6.25V12.5A6.251,6.251,0,0,0,50,6.25V3.125A3.124,3.124,0,0,0,46.875,0h-12.5A3.124,3.124,0,0,0,31.25,3.125V6.25A6.251,6.251,0,0,0,25,12.5V56.25A6.251,6.251,0,0,0,31.25,62.5Zm59.375,25h-.252A37.437,37.437,0,0,0,62.5,25V37.5a25,25,0,0,1,0,50H9.375A9.375,9.375,0,0,0,0,96.875,3.124,3.124,0,0,0,3.125,100h93.75A3.124,3.124,0,0,0,100,96.875,9.375,9.375,0,0,0,90.625,87.5ZM20.313,81.25H60.938A1.562,1.562,0,0,0,62.5,79.688V76.563A1.562,1.562,0,0,0,60.938,75H20.313a1.562,1.562,0,0,0-1.562,1.563v3.125A1.562,1.562,0,0,0,20.313,81.25Z" transform="translate(267 4284)" fill="#fff"/>
    </g>
  </g>
</svg>
