<?xml version="1.0" encoding="utf-8"?>
<!-- Generator: Adobe Illustrator 16.0.0, SVG Export Plug-In . SVG Version: 6.00 Build 0)  -->
<!DOCTYPE svg PUBLIC "-//W3C//DTD SVG 1.1//EN" "http://www.w3.org/Graphics/SVG/1.1/DTD/svg11.dtd">
<svg version="1.1" id="圖層_1" xmlns="http://www.w3.org/2000/svg" xmlns:xlink="http://www.w3.org/1999/xlink" x="0px" y="0px"
	 width="105px" height="100px" viewBox="28.5 23 105 100" enable-background="new 28.5 23 105 100" xml:space="preserve">
<g id="组_291" transform="translate(-236 -4261)">
	<g id="组_290">
		<g id="组_243" transform="translate(-15936 -101)">
			<path id="矩形_78" fill="#7CD3CD" d="M16215.346,4389.938h75.309c6.818,0,12.346,5.527,12.346,12.346v65.432
				c0,6.818-5.527,12.346-12.346,12.346h-75.309c-6.818,0-12.346-5.527-12.346-12.346v-65.432
				C16203,4395.465,16208.527,4389.938,16215.346,4389.938z"/>
		</g>
		<path id="microscope-solid" fill="#FFFFFF" d="M305.426,4341.716h1.447v1.93c0,1.064,0.863,1.929,1.927,1.929
			c0.001,0,0.001,0,0.001,0h4.823c1.065,0,1.928-0.862,1.929-1.928v-0.001v-1.93H317c2.13,0,3.858-1.728,3.858-3.857v-27.006
			c0-2.131-1.729-3.858-3.858-3.858v-1.929c0-1.065-0.863-1.929-1.928-1.929c0,0-0.001,0-0.001,0h-7.716
			c-1.065,0-1.929,0.863-1.929,1.928c0,0,0,0.001,0,0.001v1.929c-2.13,0-3.857,1.728-3.858,3.858v27.006
			C301.568,4339.988,303.295,4341.716,305.426,4341.716z M342.077,4357.148h-0.155c8.544-9.481,7.785-24.093-1.695-32.638
			c-4.255-3.835-9.782-5.953-15.511-5.943v7.716c8.522,0,15.433,6.909,15.433,15.432s-6.91,15.433-15.433,15.433h-32.793
			c-3.196,0-5.787,2.591-5.787,5.787c0,1.064,0.863,1.929,1.928,1.929c0,0,0.001,0,0.001,0h57.871c1.064,0,1.929-0.862,1.929-1.928
			v-0.001C347.864,4359.739,345.273,4357.148,342.077,4357.148z M298.675,4353.29h25.077c0.532,0,0.964-0.432,0.964-0.965v-1.929
			c0-0.532-0.431-0.965-0.963-0.965c-0.001,0-0.001,0-0.001,0h-25.077c-0.533,0-0.964,0.432-0.964,0.965l0,0v1.929
			C297.71,4352.858,298.142,4353.29,298.675,4353.29z"/>
	</g>
</g>
</svg>
