<?xml version="1.0" encoding="utf-8"?>
<!-- Generator: Adobe Illustrator 16.0.0, SVG Export Plug-In . SVG Version: 6.00 Build 0)  -->
<!DOCTYPE svg PUBLIC "-//W3C//DTD SVG 1.1//EN" "http://www.w3.org/Graphics/SVG/1.1/DTD/svg11.dtd">
<svg version="1.1" id="圖層_1" xmlns="http://www.w3.org/2000/svg" xmlns:xlink="http://www.w3.org/1999/xlink" x="0px" y="0px"
	 width="105px" height="100px" viewBox="28.5 23 105 100" enable-background="new 28.5 23 105 100" xml:space="preserve">
<g id="组_292" transform="translate(-236 -4563)">
	<g id="组_243" transform="translate(-15936 201)">
		<path id="矩形_78" fill="#7CD3CD" d="M16215.346,4389.938h75.309c6.818,0,12.346,5.527,12.346,12.346v65.432
			c0,6.818-5.527,12.346-12.346,12.346h-75.309c-6.818,0-12.346-5.527-12.346-12.346v-65.432
			C16203,4395.465,16208.527,4389.938,16215.346,4389.938z"/>
	</g>
	<g id="_24px_5_" transform="translate(267 4586)">
		<path id="路径_313" fill="none" d="M19.136,19.136h61.729v61.729H19.136V19.136z"/>
		<path id="路径_314" fill="#FFFFFF" d="M48.467,21.811c-12.212,0.796-21.461,11.527-21.461,23.851v24.876h15.329V50H32.116v-4.39
			c0-9.858,7.563-18.434,17.346-18.716c9.894-0.276,18.139,7.521,18.415,17.415c0.005,0.186,0.008,0.372,0.008,0.558V50h-10.22
			v20.539h10.22v2.566H50v5.137h22.994V44.866c0.031-12.728-10.26-23.071-22.987-23.102C49.493,21.762,48.979,21.778,48.467,21.811z
			"/>
	</g>
</g>
</svg>
