<svg xmlns="http://www.w3.org/2000/svg" width="162" height="146" viewBox="0 0 162 146">
  <g id="组_292" data-name="组 292" transform="translate(-236 -4563)">
    <g id="组_243" data-name="组 243" transform="translate(-15936 201)">
      <rect id="矩形_78" data-name="矩形 78" width="162" height="146" rx="20" transform="translate(16172 4362)" fill="#7cd3cd"/>
    </g>
    <g id="_24px_5_" data-name="24px (5)" transform="translate(267 4586)">
      <path id="路径_313" data-name="路径 313" d="M0,0H100V100H0Z" fill="none"/>
      <path id="路径_314" data-name="路径 314" d="M37.767,1.082C17.983,2.371,3,19.756,3,39.72v40.3H27.833V46.748H11.278V39.636c0-15.971,12.251-29.862,28.1-30.32A29.033,29.033,0,0,1,69.222,38.43v8.318H52.667V80.021H69.222V84.18H40.25V92.5H77.5V38.43A37.332,37.332,0,0,0,37.767,1.082Z" transform="translate(9.75 3.252)" fill="#fff"/>
    </g>
  </g>
</svg>
