<?xml version="1.0" encoding="utf-8"?>
<!-- Generator: Adobe Illustrator 16.0.0, SVG Export Plug-In . SVG Version: 6.00 Build 0)  -->
<!DOCTYPE svg PUBLIC "-//W3C//DTD SVG 1.1//EN" "http://www.w3.org/Graphics/SVG/1.1/DTD/svg11.dtd">
<svg version="1.1" id="圖層_1" xmlns="http://www.w3.org/2000/svg" xmlns:xlink="http://www.w3.org/1999/xlink" x="0px" y="0px"
	 width="105px" height="100px" viewBox="28.5 23 105 100" enable-background="new 28.5 23 105 100" xml:space="preserve">
<g id="组_287" transform="translate(-236 -3475)">
	<g id="组_243" transform="translate(-15936 -887)">
		<path id="矩形_78" fill="#7CD3CD" d="M16215.346,4389.938h75.309c6.818,0,12.346,5.527,12.346,12.346v65.432
			c0,6.818-5.527,12.346-12.346,12.346h-75.309c-6.818,0-12.346-5.527-12.346-12.346v-65.432
			C16203,4395.465,16208.527,4389.938,16215.346,4389.938z"/>
	</g>
	<g id="_24px_3_" transform="translate(256 3488)">
		<path id="路径_307" fill="none" d="M23.346,22.963H97.42v74.074H23.346V22.963z"/>
		<path id="路径_308" fill="#FFFFFF" d="M78.901,38.395V26.049h-6.173v12.346H57.296l0.71,7.129
			c11.327,2.624,20.895,10.679,20.895,23.734l0.062,24.691h9.814l5.556-55.555H78.901z M26.432,87.777h46.296v6.173H26.432V87.777z
			 M49.58,50.71c-11.574,0-23.148,6.204-23.148,18.549h46.296C72.729,56.914,61.154,50.71,49.58,50.71z M26.432,75.432h46.296v6.173
			H26.432V75.432z"/>
	</g>
</g>
</svg>
