<svg xmlns="http://www.w3.org/2000/svg" width="162" height="146" viewBox="0 0 162 146">
  <g id="组_287" data-name="组 287" transform="translate(-236 -3475)">
    <g id="组_243" data-name="组 243" transform="translate(-15936 -887)">
      <rect id="矩形_78" data-name="矩形 78" width="162" height="146" rx="20" transform="translate(16172 4362)" fill="#7cd3cd"/>
    </g>
    <g id="_24px_3_" data-name="24px (3)" transform="translate(256 3488)">
      <path id="路径_307" data-name="路径 307" d="M0,0H120V120H0Z" fill="none"/>
      <path id="路径_308" data-name="路径 308" d="M86,21V1H76V21H51l1.15,11.55C70.5,36.8,86,49.85,86,71l.1,40H102l9-90ZM1,101H76v10H1ZM38.5,40.95C19.75,40.95,1,51,1,71H76C76,51,57.25,40.95,38.5,40.95ZM1,81H76V91H1Z" transform="translate(4 4)" fill="#fff"/>
    </g>
  </g>
</svg>
