<?xml version="1.0" encoding="utf-8"?>
<!-- Generator: Adobe Illustrator 16.0.0, SVG Export Plug-In . SVG Version: 6.00 Build 0)  -->
<!DOCTYPE svg PUBLIC "-//W3C//DTD SVG 1.1//EN" "http://www.w3.org/Graphics/SVG/1.1/DTD/svg11.dtd">
<svg version="1.1" xmlns="http://www.w3.org/2000/svg" xmlns:xlink="http://www.w3.org/1999/xlink" x="0px" y="0px" width="500px"
	 height="500px" viewBox="0 0 500 500" enable-background="new 0 0 500 500" xml:space="preserve">
<g id="Background">
</g>
<g id="Objects">
	<g>
		<defs>
			<rect id="SVGID_1_" x="0.432" width="499.568" height="500"/>
		</defs>
		<clipPath id="SVGID_2_">
			<use xlink:href="#SVGID_1_"  overflow="visible"/>
		</clipPath>
		<g clip-path="url(#SVGID_2_)">
			<path fill="#78E6FF" d="M35.947,102.547c0,0-1.16-15.004,0.969-14.404c2.128,0.601,3.713,12.189,10.741,17.157
				c7.028,4.968,12.582,4.523,23.005,7.085c10.425,2.563,35.644,14.33,41.446,21.459c5.802,7.129,13.116,19.561,10.204,20.904
				c-2.912,1.343-31.769-4.786-42.877-15.807c0,0-2.372-2.771-8.773-2c-6.401,0.771-14.945-2.627-14.465-2.955
				c0.479-0.327,8.315-1.347,8.509-3c0.193-1.653-12.662-21.616-22.875-22.634c-10.212-1.017-18.571,1.359-17.765-1.191
				C24.871,104.612,34.612,104.487,35.947,102.547z"/>
			<path fill="#78E6FF" d="M194.29,53.715c0,0,8.547-6.206,8.97-4.712c0.423,1.493-5.926,6.699-6.315,12.727
				c-0.39,6.028,1.917,9.186,4.214,16.361c2.296,7.177,4.523,26.582,2.391,32.67c-2.132,6.089-6.881,15.03-8.753,13.782
				c-1.873-1.248-8.808-20.757-6.297-31.45c0,0,0.786-2.436-2.026-5.981c-2.813-3.545-3.919-9.903-3.547-9.736
				c0.372,0.167,3.86,4.478,4.92,3.986c1.059-0.491,8.276-15.513,5.133-21.995c-3.143-6.481-7.635-10.607-5.813-11.062
				C188.986,47.849,192.639,53.629,194.29,53.715z"/>
			<path fill="#78E6FF" d="M371.766,366.528c0,0,6.581-4.778,6.906-3.629c0.326,1.15-4.562,5.157-4.861,9.798
				c-0.301,4.642,1.476,7.072,3.244,12.597c1.768,5.525,3.482,20.465,1.84,25.151c-1.641,4.688-5.297,11.572-6.738,10.611
				c-1.442-0.961-6.781-15.98-4.849-24.213c0,0,0.605-1.875-1.56-4.604c-2.165-2.73-3.018-7.625-2.73-7.496
				c0.286,0.128,2.972,3.446,3.788,3.069c0.814-0.379,6.371-11.943,3.951-16.935c-2.42-4.989-5.878-8.166-4.477-8.516
				C367.684,362.011,370.495,366.462,371.766,366.528z"/>
			<path fill="#78E6FF" d="M338.499,448.742c0,0,6.581-4.778,6.906-3.629c0.326,1.15-4.562,5.157-4.861,9.798
				c-0.301,4.642,1.476,7.072,3.244,12.597c1.768,5.525,3.482,20.465,1.84,25.151c-1.641,4.688-5.297,11.572-6.738,10.611
				c-1.442-0.961-6.781-15.98-4.849-24.213c0,0,0.605-1.875-1.56-4.604c-2.165-2.73-3.018-7.625-2.73-7.496
				c0.286,0.128,2.972,3.446,3.788,3.069c0.814-0.379,6.371-11.943,3.951-16.935c-2.42-4.989-5.878-8.166-4.477-8.516
				C334.417,444.225,337.229,448.676,338.499,448.742z"/>
			<path fill="#78E6FF" d="M220.21,268.261c0,0-0.71-9.189,0.593-8.822c1.304,0.368,2.275,7.467,6.579,10.51
				c4.305,3.044,7.707,2.771,14.091,4.34c6.386,1.57,21.834,8.777,25.389,13.146c3.553,4.366,8.033,11.981,6.249,12.805
				c-1.783,0.821-19.459-2.933-26.264-9.684c0,0-1.452-1.697-5.374-1.226c-3.92,0.474-9.154-1.608-8.86-1.81
				c0.294-0.2,5.093-0.825,5.213-1.837c0.118-1.013-7.757-13.241-14.013-13.864c-6.255-0.622-11.375,0.833-10.882-0.73
				C213.425,269.526,219.392,269.45,220.21,268.261z"/>
			<path fill="#78E6FF" d="M99.746,212.855c0,0-3.346-6.619-2.264-6.745c1.083-0.126,3.982,4.856,8.117,5.8
				c4.135,0.944,6.582-0.302,11.812-1.092c5.232-0.79,18.933-0.166,22.915,1.994c3.982,2.159,9.65,6.45,8.576,7.608
				c-1.075,1.159-15.374,3.786-22.505,0.851c0,0-1.601-0.817-4.373,0.736s-7.303,1.61-7.146,1.371
				c0.157-0.239,3.536-2.175,3.313-2.965c-0.222-0.789-9.829-7.471-14.674-6.016c-4.844,1.454-8.206,4.106-8.318,2.793
				C95.087,215.876,99.502,213.99,99.746,212.855z"/>
			<path fill="#78E6FF" d="M-27.237,22.815c0,0-3.346-6.619-2.264-6.745c1.083-0.126,3.982,4.856,8.117,5.8
				c4.135,0.944,6.582-0.302,11.812-1.092c5.232-0.79,18.933-0.166,22.915,1.994c3.982,2.159,9.65,6.45,8.576,7.608
				c-1.075,1.159-15.374,3.786-22.505,0.851c0,0-1.601-0.817-4.373,0.736s-7.303,1.61-7.146,1.371
				c0.157-0.239,3.536-2.175,3.313-2.965c-0.222-0.789-9.829-7.471-14.674-6.016c-4.844,1.454-8.206,4.106-8.318,2.793
				C-31.896,25.837-27.48,23.95-27.237,22.815z"/>
			<path fill="#78E6FF" d="M131.328,133.211c0,0,0.784-7.375,1.761-6.893c0.978,0.481,0.707,6.24,3.667,9.277
				c2.96,3.039,5.691,3.32,10.512,5.497c4.823,2.177,15.989,10.14,18.161,14.116c2.172,3.975,4.602,10.656,3.071,11.045
				c-1.532,0.389-14.966-5.168-19.361-11.505c0,0-0.901-1.556-4.072-1.756c-3.171-0.201-7.007-2.613-6.745-2.729
				c0.262-0.116,4.15,0.093,4.392-0.691c0.242-0.783-4.197-11.61-9.056-13.019c-4.857-1.41-9.121-1.007-8.501-2.171
				C125.775,133.219,130.507,134.032,131.328,133.211z"/>
			<path fill="#78E6FF" d="M317.395,295.355c0,0,4.016-6.235,4.671-5.366c0.657,0.868-2.172,5.893-0.893,9.936
				c1.279,4.045,3.593,5.524,6.921,9.634c3.331,4.112,9.728,16.244,9.882,20.771s-0.677,11.586-2.221,11.247
				c-1.542-0.341-11.048-11.343-12.126-18.979c0,0-0.105-1.794-2.849-3.397c-2.742-1.604-5.085-5.483-4.8-5.47
				c0.286,0.014,3.667,1.948,4.234,1.357c0.568-0.591,1.468-12.259-2.24-15.701c-3.706-3.441-7.695-4.997-6.619-5.758
				C312.431,292.867,316.293,295.72,317.395,295.355z"/>
			<path fill="#78E6FF" d="M-12.706,51.716c0,0,0.931-8.753,2.09-8.181c1.16,0.572,0.839,7.406,4.352,11.011
				c3.513,3.606,6.755,3.941,12.476,6.524c5.724,2.584,18.977,12.035,21.554,16.754c2.579,4.718,5.461,12.646,3.645,13.109
				c-1.818,0.461-17.763-6.134-22.978-13.655c0,0-1.069-1.847-4.833-2.084c-3.764-0.239-8.316-3.102-8.005-3.239
				c0.311-0.137,4.925,0.11,5.213-0.82c0.288-0.93-4.981-13.779-10.748-15.451c-5.765-1.673-10.825-1.195-10.09-2.577
				C-19.296,51.726-13.68,52.69-12.706,51.716z"/>
			<path fill="#78E6FF" d="M158.917,58.989c0,0,5.731-4.708,6.089-3.679c0.359,1.029-3.872,4.944-3.891,9.186
				c-0.021,4.242,1.729,6.358,3.639,11.29c1.912,4.935,4.288,18.442,3.048,22.799c-1.239,4.357-4.191,10.824-5.556,10.028
				c-1.365-0.796-7.045-14.18-5.734-21.779c0,0,0.449-1.741-1.671-4.107c-2.12-2.368-3.163-6.777-2.895-6.675
				c0.268,0.101,2.894,2.976,3.616,2.587c0.722-0.389,5.149-11.22,2.673-15.632c-2.474-4.411-5.796-7.114-4.539-7.509
				C154.953,55.101,157.757,58.999,158.917,58.989z"/>
			<path fill="#78E6FF" d="M381.501,432.414c0,0,4.45-5.932,5.044-5.018c0.593,0.914-2.59,5.722-1.603,9.847
				c0.985,4.125,3.188,5.767,6.213,10.104c3.026,4.34,8.538,16.898,8.367,21.426c-0.17,4.527-1.505,11.509-3.02,11.059
				s-10.208-12.104-10.735-19.798c0,0,0.022-1.797-2.598-3.594c-2.621-1.797-4.68-5.833-4.395-5.798
				c0.283,0.034,3.516,2.204,4.125,1.655s2.341-12.12-1.11-15.818c-3.449-3.7-7.317-5.537-6.189-6.22
				C376.728,429.577,380.376,432.699,381.501,432.414z"/>
			<path fill="#78E6FF" d="M9.414,147.255c0,0-1.883-7.035-0.927-6.998c0.956,0.036,2.702,5.388,6.135,6.935
				c3.433,1.547,5.74,0.679,10.384,0.676c4.647-0.003,16.403,2.648,19.518,5.374c3.115,2.724,7.362,7.805,6.255,8.789
				c-1.106,0.985-13.877,1.456-19.598-2.503c0,0-1.26-1.045-3.896,0.077c-2.636,1.122-6.563,0.505-6.391,0.292
				s3.391-1.624,3.319-2.437c-0.071-0.813-7.36-8.839-11.774-8.122c-4.413,0.716-7.726,2.836-7.622,1.523
				C4.922,149.548,9.029,148.34,9.414,147.255z"/>
			<path fill="#78E6FF" d="M360.812,421.797c0,0,5.895-4.277,6.202-3.372c0.309,0.904-4.063,4.452-4.278,8.211
				c-0.216,3.76,1.421,5.603,3.086,9.938c1.666,4.338,3.398,16.264,1.969,20.147c-1.428,3.884-4.652,9.668-5.967,8.988
				c-1.315-0.682-6.327-12.438-4.678-19.195c0,0,0.524-1.552-1.468-3.61c-1.99-2.059-2.82-5.947-2.56-5.863
				c0.261,0.085,2.729,2.585,3.463,2.229c0.732-0.358,5.619-10.038,3.369-13.901c-2.249-3.864-5.415-6.198-4.15-6.572
				C357.063,418.423,359.661,421.825,360.812,421.797z"/>
			<path fill="#78E6FF" d="M217.115,121.068c0,0,6.522-3.239,6.676-2.295c0.154,0.944-4.747,3.716-5.583,7.387
				c-0.836,3.671,0.471,5.761,1.394,10.313c0.924,4.554,0.653,16.603-1.401,20.196c-2.053,3.593-6.192,8.762-7.376,7.872
				c-1.185-0.89-4.175-13.314-1.428-19.705c0,0,0.775-1.442-0.847-3.803c-1.622-2.361-1.795-6.333-1.552-6.206
				c0.243,0.126,2.263,3.001,3.045,2.771c0.782-0.231,7.207-8.965,5.629-13.149c-1.576-4.184-4.311-7.011-3.002-7.169
				C213.978,117.119,215.976,120.905,217.115,121.068z"/>
			<path fill="#78E6FF" d="M125.092,194.604c0,0,0.267-13.784-18.508-21.395c0,0-5.349-3.046-7.213-4.785s-5.327-6.722-5.817-4.556
				c-0.491,2.165,0.302,4.891-1.246,5.469c-1.548,0.579-16.037,1.668-20.142-0.341c-4.105-2.01-4.798-2.86-5.016-3.303
				s-5.958-17.139-6.495-13.755c-0.537,3.385,2.824,12.998,1.303,15.305c-1.521,2.308-15.58,11.155-13.892,11.607
				c1.688,0.45,17.938-6.18,21.461-4.981c3.522,1.197,15.059,14.207,15.059,14.207s-8.072,3.517-6.53,4.041
				c1.541,0.523,12.72-0.218,14.001,0.709c1.281,0.926,12.066,4.593,20.34,4.091C120.671,196.416,125.255,196.366,125.092,194.604z"
				/>
			<path fill="#78E6FF" d="M446.698,480.574c0,0,9.339-10.142,0.331-28.288c0,0-1.984-5.826-2.227-8.364
				c-0.243-2.538,0.469-8.563-1.334-7.268c-1.802,1.294-3.017,3.861-4.559,3.268c-1.543-0.593-13.11-9.385-14.853-13.61
				c-1.738-4.227-1.694-5.322-1.565-5.8c0.132-0.474,6.905-16.78,4.259-14.602c-2.645,2.177-6.504,11.602-9.172,12.32
				c-2.668,0.718-19.059-1.981-18.096-0.523c0.967,1.456,17.526,7.27,19.368,10.501c1.844,3.232,1.854,20.62,1.854,20.62
				s-8.374-2.719-7.568-1.305c0.807,1.414,9.667,8.271,10.012,9.814c0.344,1.542,5.987,11.438,12.513,16.55
				C442.187,478.998,445.651,482,446.698,480.574z"/>
			<path fill="#78E6FF" d="M135.418,115.39c0,0,9.13-4.888,7.221-19.988c0,0,0.031-4.624,0.486-6.484
				c0.455-1.86,2.448-5.959,0.849-5.486c-1.599,0.474-3.094,1.995-4.042,1.193c-0.948-0.801-6.984-9.896-7.176-13.325
				c-0.19-3.428,0.112-4.195,0.322-4.5s9.043-10.2,6.628-9.309c-2.416,0.892-7.48,6.625-9.551,6.476
				c-2.071-0.149-13.033-6.111-12.709-4.839c0.325,1.271,10.639,9.485,11.148,12.233c0.509,2.748-3.778,15.087-3.778,15.087
				s-5.27-3.998-5.047-2.794c0.223,1.202,4.815,8.255,4.679,9.436c-0.136,1.179,1.422,9.594,4.791,14.832
				C132.606,113.158,134.323,116.144,135.418,115.39z"/>
			<path fill="#78E6FF" d="M196.325,40.241c0,0,10.234-1.592,13.428-16.473c0,0,1.559-4.354,2.604-5.958
				c1.044-1.604,4.281-4.814,2.616-4.896c-1.666-0.082-3.58,0.859-4.208-0.211c-0.63-1.07-3.317-11.649-2.363-14.949
				c0.955-3.298,1.493-3.921,1.792-4.14c0.299-0.219,11.908-6.634,9.335-6.592c-2.574,0.042-9.251,3.777-11.155,2.951
				c-1.905-0.826-10.277-10.079-10.393-8.771c-0.114,1.307,6.902,12.471,6.473,15.232c-0.429,2.762-8.557,12.987-8.557,12.987
				s-3.65-5.516-3.838-4.307c-0.187,1.208,1.813,9.383,1.293,10.452c-0.519,1.067-1.832,9.524-0.387,15.581
				S195.042,40.591,196.325,40.241z"/>
			<path fill="#78E6FF" d="M107.655,42.944c0,0,7.538-4.036,5.962-16.501c0,0,0.025-3.818,0.401-5.354
				c0.375-1.536,2.021-4.92,0.701-4.529c-1.32,0.392-2.555,1.647-3.337,0.985c-0.783-0.662-5.766-8.17-5.924-11
				c-0.157-2.831,0.092-3.463,0.266-3.715s7.466-8.421,5.473-7.686c-1.994,0.736-6.176,5.47-7.885,5.346
				c-1.71-0.123-10.76-5.045-10.493-3.995c0.269,1.049,8.784,7.831,9.204,10.1c0.42,2.269-3.12,12.456-3.12,12.456
				s-4.35-3.3-4.167-2.307c0.184,0.992,3.976,6.816,3.863,7.79c-0.112,0.974,1.174,7.92,3.955,12.245
				C105.334,41.102,106.751,43.566,107.655,42.944z"/>
			<path fill="#78E6FF" d="M266.608,274.459c0,0,7.693-4.118,6.084-16.839c0,0,0.026-3.897,0.409-5.464
				c0.384-1.567,2.063-5.021,0.716-4.622c-1.348,0.4-2.607,1.681-3.405,1.006c-0.799-0.676-5.884-8.338-6.046-11.227
				c-0.16-2.888,0.095-3.534,0.271-3.791c0.178-0.257,7.618-8.594,5.584-7.843c-2.035,0.751-6.302,5.582-8.046,5.456
				c-1.745-0.125-10.98-5.149-10.707-4.077c0.272,1.071,8.963,7.991,9.392,10.306s-3.184,12.711-3.184,12.711
				s-4.439-3.369-4.252-2.355c0.188,1.013,4.057,6.956,3.942,7.95c-0.115,0.994,1.198,8.082,4.035,12.496
				C264.24,272.579,265.687,275.094,266.608,274.459z"/>
			<path fill="#78E6FF" d="M105.853,111.276c0,0,6.911-12.199-14.602-29.09c0,0-9.007-6.009-10.258-8.829
				c-1.251-2.819-11.542-15.342-11.555-13.137s-0.099,7.333-0.099,7.333S42.15,59.229,38.066,50.658c0,0-1.185-23.055-3.625-20.753
				c-2.44,2.301-2.192,16.197-3.734,15.857c-1.542-0.34-19.109-3.919-17.254-0.71c1.855,3.209,18.056,4.851,21.896,8.182
				c3.84,3.332,15.22,27.275,15.986,28.272c0.766,0.998-0.766-0.997-0.766-0.997s-4.738-0.69-6.603-2.245
				c-1.865-1.555,1.733,5.194,8.719,7.938c6.986,2.744,9.512,4.523,11.49,5.748C66.152,93.173,92.409,118.86,105.853,111.276z"/>
			<path fill="#78E6FF" d="M100.73,257.312c0,0-0.901-10.672-21.754-12.048c0,0-8.271,0.095-10.277-1.144
				c-2.005-1.239-13.896-4.698-12.953-3.301c0.943,1.396,3.1,4.667,3.1,4.667s-20.736,6.477-27.008,2.832
				c0,0-10.69-14.028-11.236-11.525s5.603,11.161,4.484,11.611c-1.119,0.45-13.742,5.769-11.188,6.993s13.479-4.728,17.337-4.283
				c3.858,0.445,21.361,10.637,22.273,10.935c0.914,0.3-0.913-0.298-0.913-0.298s-3.286,1.608-5.133,1.432
				c-1.847-0.176,3.333,2.528,8.922,1.246c5.589-1.283,7.949-1.25,9.724-1.33C67.886,263.017,95.522,267.892,100.73,257.312z"/>
			<path fill="#78E6FF" d="M180.038,51.049c0,0,7.524-5.203-0.315-21.235c0,0-3.584-6.088-3.519-8.1
				c0.066-2.012-2.423-12.291-3.057-10.999c-0.634,1.292-2.141,4.279-2.141,4.279S157.4,2.384,157.435-3.811
				c0,0,5.852-13.879,3.765-13.22c-2.086,0.658-5.888,8.892-6.697,8.254c-0.809-0.638-10.112-7.73-9.933-5.318
				c0.178,2.413,9.229,7.978,10.538,11.025s1.194,20.344,1.361,21.147c0.167,0.804-0.167-0.803-0.167-0.803
				s-2.587-1.751-3.241-3.194c-0.654-1.443-0.457,3.543,2.868,7.139c3.325,3.596,4.303,5.359,5.117,6.64
				C161.858,29.14,169.987,51.686,180.038,51.049z"/>
			<path fill="#78E6FF" d="M191.333,165c0,0,5.417-5.167,0.672-14.4c0,0-2.918-4.918-2.871-6.546s-1.996-9.942-2.506-8.895
				s-1.721,3.47-1.721,3.47s-11.05-10.169-11.04-15.184c0,0,4.697-11.252,3.01-10.713c-1.688,0.54-4.741,7.215-5.398,6.701
				c-0.657-0.514-8.208-6.228-8.056-4.276c0.151,1.953,7.494,6.432,8.563,8.895c1.068,2.463,0.978,18.561,1.115,19.21
				c0.137,0.65-0.137-0.649-0.137-0.649s-2.099-1.41-2.633-2.577c-0.534-1.166-0.36,2.87,2.342,5.771s3.499,4.325,4.161,5.36
				C177.496,152.201,183.199,165.544,191.333,165z"/>
			<path fill="#78E6FF" d="M79.181,26.922c0,0,3.076-6.824-4.793-13.595c0,0-4.554-3.459-5.123-4.985
				c-0.569-1.527-5.589-8.462-5.667-7.299c-0.078,1.163-0.29,3.862-0.29,3.862s-14.063-5.266-15.94-9.917
				c0,0,0.12-12.193-1.24-11.059c-1.36,1.135-1.679,8.468-2.481,8.24c-0.802-0.229-9.947-2.684-9.073-0.933
				c0.875,1.752,9.362,3.141,11.279,5.021c1.917,1.88,7.887,16.83,8.258,17.38c0.371,0.551-0.371-0.55-0.371-0.55
				s-2.476-0.517-3.409-1.397c-0.933-0.879,0.746,2.794,4.34,4.466c3.595,1.672,4.869,2.692,5.872,3.402
				C61.545,20.268,71.849,30.485,79.181,26.922z"/>
			<path fill="#78E6FF" d="M244.975,259.305c0,0,2.622-14.174-3.095-27.246c0,0-5.377-7.369-5.547-9.963
				c-0.17-2.593-4.67-15.486-5.321-13.746c-0.651,1.741-2.208,5.77-2.208,5.77s-14.051-14.481-14.79-22.446
				c0,0,5.761-18.577,3.163-17.465c-2.598,1.11-6.344,10.011-7.464,9.295c-1.121-0.717-13.317-4.079-13.534-3.415
				c-0.971,2.969,12.87,9.082,14.939,12.832c2.069,3.75,1.734,24.713,1.734,24.713s-3.546-1.922-4.569-3.694
				c-1.023-1.771-0.138,4.611,4.589,8.81c4.728,4.2,3.651,6.389,6.178,11.627C219.899,236.142,232.141,261.397,244.975,259.305z"/>
			<path fill="#78E6FF" d="M208.393,259.238c0,0,4.219-7.447-8.914-17.758c0,0-5.498-3.668-6.262-5.39
				c-0.764-1.721-7.045-9.366-7.054-8.02c-0.008,1.347-0.061,4.476-0.061,4.476s-16.597-5.081-19.09-10.313
				c0,0-0.724-14.073-2.213-12.668c-1.489,1.404-1.338,9.887-2.28,9.68c-0.941-0.208-11.665-2.393-10.532-0.434
				c1.132,1.959,11.022,2.961,13.366,4.995c2.344,2.034,9.291,16.65,9.758,17.258c0.467,0.609-0.468-0.608-0.468-0.608
				s-2.892-0.421-4.031-1.371s1.058,3.17,5.323,4.845s5.807,2.761,7.014,3.509C184.158,248.188,200.186,263.867,208.393,259.238z"/>
			<path fill="#78E6FF" d="M44.393,142.238c0,0,4.219-7.447-8.914-17.758c0,0-5.498-3.668-6.262-5.39
				c-0.764-1.721-7.045-9.366-7.054-8.02c-0.008,1.347-0.061,4.476-0.061,4.476s-16.597-5.081-19.09-10.313
				c0,0-0.724-14.073-2.213-12.668c-1.489,1.404-1.338,9.887-2.28,9.68c-0.941-0.208-11.665-2.393-10.532-0.434
				c1.132,1.959,11.022,2.961,13.366,4.995c2.344,2.034,9.291,16.65,9.758,17.258c0.467,0.609-0.468-0.608-0.468-0.608
				s-2.892-0.421-4.031-1.371s1.058,3.17,5.323,4.845s5.807,2.761,7.014,3.509C20.158,131.188,36.186,146.867,44.393,142.238z"/>
			<path fill="#78E6FF" d="M27.921,198.685c0,0,4.219-7.447-8.914-17.758c0,0-5.498-3.668-6.262-5.39
				c-0.764-1.721-7.045-9.366-7.054-8.02c-0.008,1.347-0.061,4.476-0.061,4.476s-16.597-5.081-19.09-10.313
				c0,0-0.724-14.073-2.213-12.668c-1.489,1.404-1.338,9.887-2.28,9.68c-0.941-0.208-11.665-2.393-10.532-0.434
				c1.132,1.959,11.022,2.961,13.366,4.995c2.344,2.034,9.291,16.65,9.758,17.258c0.467,0.609-0.468-0.608-0.468-0.608
				s-2.892-0.421-4.031-1.371s1.058,3.17,5.323,4.845s5.807,2.761,7.014,3.509C3.687,187.634,19.715,203.313,27.921,198.685z"/>
			<path fill="#78E6FF" d="M137.764,171.188c0,0-2.241-12.548-1.508-12.176c0.733,0.372,6.015,14.446,7.589,15.595
				c1.574,1.149,21.812,3.734,23.064,3.3c1.252-0.434,0.492-3.038,0.492-3.038c2.573,0.015,8.228,4.47,10.812,6.267
				c12.396,8.623,16.672,14.877,18.13,17.091c1.457,2.215,2.008,4.508,1.814,6.16c-0.193,1.653-1.519,5.605-6.655,4.104
				c-5.138-1.5-22.441-9.104-25.012-9.487c-2.571-0.382-13.345-2.278-10.873-2.689c2.473-0.411,6.752-2.886,5.286-3.63
				c-1.466-0.743-11.428-12.971-16.897-14.217c-5.47-1.246-19.506,3.927-17.288,1.734S135.802,175.878,137.764,171.188z"/>
			<path fill="#78E6FF" d="M-5.5,298.632c0,0-8.471-7.483-7.757-7.629c0.715-0.146,12.139,6.723,13.865,6.653
				s17.212-9.424,17.843-10.416c0.631-0.99-1.332-2.381-1.332-2.381c1.796-1.407,8.18-1.428,10.965-1.603
				c13.362-0.839,19.78,1.15,22.013,1.886c2.232,0.735,3.878,2.025,4.655,3.28s2.033,4.73-2.363,6.518
				c-4.396,1.788-20.608,6.039-22.605,7.189c-1.997,1.151-10.527,5.77-9.036,4.122c1.492-1.648,3.101-5.726,1.673-5.436
				c-1.428,0.292-15.086-2.714-19.573-0.566c-4.486,2.148-11.389,13.476-11.056,10.729C-7.875,308.234-4.28,302.972-5.5,298.632z"/>
			<path fill="#78E6FF" d="M103.944,59.558c-0.499-2.025-2.868-5.261-5.547-8.25c-0.11-1.407-0.365-3.171-0.646-3.641
				c-0.272-0.454-1.013,0.331-1.686,1.179c-1.751-1.749-3.451-3.23-4.685-4.045c-3.706-2.45-6.031-2.948-7.905-6.043
				c-1.874-3.094-0.274-8.451-1.017-8.985c-0.742-0.535-3.173,6.289-3.173,6.289c-0.913,0.696-4.864-0.472-5.681,0.563
				c-0.817,1.034,3.011,1.025,6.931,2.762c3.922,1.735,5.249,12.235,4.852,12.946c-0.397,0.711-3.753,0.181-4.009,0.267
				c-0.257,0.085,2.531,2.67,5.261,3.132c2.729,0.461,3.15,1.993,3.15,1.993c2.35,6.3,12.8,12.652,14.233,12.421
				C105.454,69.912,104.906,63.46,103.944,59.558z"/>
			<path fill="#78E6FF" d="M223.288,71.475c1.302-1.63,2.421-5.48,3.157-9.427c1.048-0.945,2.292-2.223,2.492-2.732
				c0.193-0.493-0.88-0.602-1.963-0.618c0.318-2.455,0.456-4.705,0.35-6.18c-0.318-4.431-1.341-6.578-0.031-9.95
				c1.31-3.372,6.531-5.371,6.502-6.285c-0.029-0.914-6.919,1.32-6.919,1.32c-1.108-0.299-2.592-4.143-3.91-4.16
				c-1.317-0.018,1.023,3.012,2.038,7.178c1.016,4.167-6.498,11.621-7.303,11.739c-0.806,0.119-2.432-2.864-2.656-3.015
				c-0.225-0.152-0.573,3.635,0.725,6.08c1.298,2.444,0.341,3.711,0.341,3.711c-3.561,5.704-2.224,17.86-1.167,18.855
				C216.001,78.985,220.782,74.617,223.288,71.475z"/>
			<path fill="#78E6FF" d="M162.753,250.731c-1.62-1.313-5.463-2.461-9.404-3.225c-0.937-1.055-2.206-2.308-2.713-2.511
				c-0.492-0.197-0.608,0.876-0.632,1.958c-2.452-0.336-4.701-0.49-6.177-0.395c-4.433,0.286-6.587,1.293-9.95-0.041
				c-3.361-1.334-5.323-6.569-6.237-6.547c-0.914,0.021,1.27,6.929,1.27,6.929c-0.307,1.105-4.161,2.562-4.188,3.88
				c-0.027,1.317,3.019-1.002,7.192-1.986c4.174-0.985,11.574,6.581,11.686,7.388c0.114,0.807-2.881,2.411-3.034,2.634
				c-0.154,0.225,3.631,0.6,6.084-0.681c2.454-1.281,3.714-0.314,3.714-0.314c5.677,3.602,17.843,2.352,18.845,1.302
				C170.211,258.071,165.877,253.26,162.753,250.731z"/>
			<path fill="#78E6FF" d="M15.268,262.533c-1.814-1.028-5.794-1.526-9.807-1.63c-1.098-0.886-2.556-1.913-3.09-2.029
				c-0.518-0.113-0.455,0.964-0.301,2.035c-2.474,0.073-4.717,0.292-6.158,0.63c-4.325,1.013-6.284,2.361-9.821,1.6
				c-3.535-0.762-6.333-5.602-7.231-5.429c-0.898,0.172,2.395,6.624,2.395,6.624c-0.121,1.142-3.682,3.213-3.491,4.518
				c0.191,1.304,2.813-1.486,6.766-3.145c3.955-1.66,12.5,4.583,12.744,5.359c0.245,0.777-2.444,2.854-2.558,3.098
				c-0.115,0.247,3.68-0.007,5.889-1.674c2.209-1.668,3.612-0.923,3.612-0.923c6.193,2.616,17.986-0.622,18.802-1.822
				C23.834,268.543,18.767,264.512,15.268,262.533z"/>
			<path fill="#78E6FF" d="M104.413,230.938c-1.24-1.006-4.183-1.884-7.201-2.469c-0.717-0.808-1.689-1.767-2.078-1.922
				c-0.376-0.151-0.465,0.671-0.484,1.499c-1.877-0.257-3.599-0.375-4.73-0.302c-3.394,0.219-5.044,0.99-7.619-0.032
				c-2.574-1.021-4.076-5.03-4.776-5.013c-0.7,0.017,0.972,5.305,0.972,5.305c-0.235,0.847-3.186,1.961-3.207,2.971
				c-0.021,1.009,2.312-0.767,5.507-1.521c3.196-0.754,8.862,5.039,8.948,5.657c0.087,0.618-2.206,1.846-2.323,2.017
				c-0.118,0.172,2.78,0.459,4.659-0.521c1.879-0.981,2.844-0.241,2.844-0.241c4.347,2.758,13.662,1.801,14.43,0.997
				C110.124,236.558,106.806,232.873,104.413,230.938z"/>
			<path fill="#78E6FF" d="M7.166,221.866c-1.24-1.006-4.183-1.884-7.201-2.469c-0.717-0.808-1.689-1.767-2.078-1.922
				c-0.376-0.151-0.465,0.671-0.484,1.499c-1.877-0.257-3.599-0.375-4.73-0.302c-3.394,0.219-5.044,0.99-7.619-0.032
				c-2.574-1.021-4.076-5.03-4.776-5.013c-0.7,0.017,0.972,5.305,0.972,5.305c-0.235,0.847-3.186,1.961-3.207,2.971
				c-0.021,1.009,2.312-0.767,5.507-1.521c3.196-0.754,8.862,5.039,8.948,5.657c0.087,0.618-2.206,1.846-2.323,2.017
				c-0.118,0.172,2.78,0.459,4.659-0.521c1.879-0.981,2.844-0.241,2.844-0.241c4.347,2.758,13.662,1.801,14.43,0.997
				C12.876,227.486,9.559,223.801,7.166,221.866z"/>
			<path fill="#78E6FF" d="M148.873,47.145c0.152-2.081-1.1-5.89-2.724-9.561c0.331-1.373,0.634-3.129,0.511-3.662
				c-0.119-0.516-1.066,0.001-1.968,0.6c-1.125-2.205-2.283-4.139-3.204-5.296c-2.767-3.476-4.824-4.669-5.649-8.191
				c-0.825-3.521,2.353-8.122,1.812-8.859c-0.54-0.738-4.962,5-4.962,5c-1.083,0.379-4.479-1.953-5.577-1.222
				s2.546,1.906,5.737,4.77c3.193,2.863,1.208,13.259,0.61,13.812c-0.598,0.554-3.625-0.988-3.895-0.986
				c-0.271,0.001,1.582,3.322,4.034,4.605s2.379,2.869,2.379,2.869c0.287,6.718,8.26,15.991,9.695,16.214
				C147.106,57.458,148.581,51.153,148.873,47.145z"/>
			<path fill="#78E6FF" d="M163.004,128.762c-0.375-1.524-2.158-3.959-4.174-6.208c-0.083-1.059-0.274-2.387-0.486-2.74
				c-0.205-0.341-0.763,0.249-1.269,0.888c-1.318-1.316-2.597-2.431-3.525-3.044c-2.789-1.843-4.539-2.219-5.949-4.547
				c-1.41-2.328-0.207-6.36-0.765-6.762c-0.558-0.402-2.388,4.732-2.388,4.732c-0.687,0.524-3.66-0.355-4.275,0.423
				c-0.615,0.778,2.266,0.772,5.216,2.079c2.951,1.306,3.95,9.207,3.651,9.742c-0.299,0.535-2.824,0.136-3.017,0.201
				c-0.194,0.064,1.905,2.009,3.959,2.356c2.053,0.348,2.37,1.5,2.37,1.5c1.769,4.741,9.633,9.521,10.711,9.347
				S163.728,131.699,163.004,128.762z"/>
			<path fill="#78E6FF" d="M352.506,376.32c-0.375-1.524-2.157-3.959-4.174-6.209c-0.083-1.059-0.274-2.387-0.486-2.739
				c-0.205-0.341-0.763,0.249-1.27,0.888c-1.317-1.316-2.596-2.431-3.525-3.045c-2.788-1.843-4.538-2.219-5.948-4.547
				c-1.409-2.328-0.206-6.359-0.765-6.762s-2.389,4.732-2.389,4.732c-0.686,0.523-3.659-0.355-4.274,0.424
				c-0.615,0.777,2.266,0.771,5.216,2.078c2.951,1.306,3.949,9.207,3.65,9.742s-2.824,0.137-3.017,0.201
				c-0.194,0.063,1.905,2.009,3.959,2.355c2.054,0.348,2.37,1.5,2.37,1.5c1.769,4.741,9.633,9.521,10.711,9.348
				C353.643,384.112,353.23,379.257,352.506,376.32z"/>
			<path fill="#78E6FF" d="M338.746,417.921c0.246-1.55-0.452-4.485-1.438-7.342c0.334-1.009,0.674-2.307,0.614-2.713
				c-0.057-0.395-0.8-0.066-1.514,0.325c-0.704-1.725-1.449-3.248-2.068-4.174c-1.854-2.78-3.321-3.806-3.718-6.499
				c-0.396-2.692,2.276-5.94,1.918-6.528s-4.038,3.435-4.038,3.435c-0.834,0.217-3.233-1.747-4.104-1.268
				c-0.868,0.478,1.788,1.59,4.001,3.938c2.214,2.349,0.067,10.019-0.416,10.396c-0.482,0.377-2.655-0.969-2.857-0.984
				c-0.203-0.018,0.977,2.59,2.735,3.706c1.758,1.118,1.603,2.303,1.603,2.303c-0.21,5.056,5.184,12.513,6.245,12.771
				C336.771,425.543,338.275,420.909,338.746,417.921z"/>
			<path fill="#78E6FF" d="M318.271,327.681c-0.896-1.291-3.429-2.927-6.116-4.309c-0.456-0.959-1.109-2.131-1.434-2.386
				c-0.313-0.245-0.623,0.507-0.868,1.284c-1.701-0.759-3.293-1.344-4.381-1.585c-3.263-0.726-5.031-0.451-7.18-2.121
				c-2.148-1.672-2.465-5.867-3.13-6.043s-0.54,5.273-0.54,5.273c-0.453,0.734-3.545,0.976-3.842,1.922
				c-0.297,0.947,2.393-0.088,5.614,0.079c3.223,0.164,6.979,7.188,6.891,7.795s-2.59,1.136-2.746,1.265
				c-0.159,0.129,2.497,1.195,4.539,0.787c2.043-0.409,2.75,0.554,2.75,0.554c3.345,3.796,12.398,5.452,13.343,4.903
				C322.116,334.552,319.997,330.163,318.271,327.681z"/>
			<path fill="#78E6FF" d="M413.453,386.986c-0.235-1.824-1.861-4.844-3.754-7.673c0.022-1.249-0.04-2.823-0.228-3.258
				c-0.181-0.42-0.832,0.222-1.434,0.922c-1.253-1.668-2.485-3.096-3.403-3.903c-2.75-2.425-4.558-3.031-5.803-5.892
				c-1.244-2.863,0.449-7.476-0.099-8c-0.546-0.522-3.019,5.322-3.019,5.322c-0.778,0.55-3.826-0.762-4.557,0.092
				c-0.732,0.854,2.312,1.12,5.289,2.931c2.979,1.809,3.204,11.166,2.832,11.765c-0.371,0.6-2.996-0.107-3.206-0.05
				c-0.212,0.056,1.801,2.535,3.933,3.137c2.133,0.602,2.346,1.982,2.346,1.982c1.369,5.724,9.172,12.072,10.328,11.969
				C413.836,396.228,413.911,390.496,413.453,386.986z"/>
			<path fill="#78E6FF" d="M302.676,302.324c-0.375-1.523-2.158-3.959-4.175-6.208c-0.083-1.06-0.274-2.387-0.486-2.739
				c-0.205-0.342-0.763,0.248-1.269,0.887c-1.318-1.316-2.598-2.43-3.525-3.044c-2.789-1.843-4.539-2.219-5.949-4.548
				c-1.41-2.328-0.207-6.359-0.766-6.762c-0.558-0.402-2.387,4.732-2.387,4.732c-0.688,0.524-3.66-0.354-4.275,0.424
				c-0.615,0.777,2.266,0.771,5.216,2.078c2.951,1.307,3.95,9.207,3.651,9.742c-0.3,0.535-2.824,0.137-3.018,0.201
				s1.904,2.01,3.959,2.356c2.053,0.348,2.37,1.499,2.37,1.499c1.769,4.742,9.633,9.521,10.711,9.348
				S303.399,305.262,302.676,302.324z"/>
			<path fill="#78E6FF" d="M439.532,518.034c0.264-2.796-1.315-7.967-3.397-12.957c0.484-1.841,0.942-4.196,0.792-4.918
				c-0.144-0.698-1.436-0.03-2.666,0.751c-1.453-3.002-2.959-5.639-4.165-7.225c-3.628-4.759-6.366-6.428-7.377-11.195
				c-1.011-4.769,3.4-10.874,2.692-11.883c-0.704-1.011-6.824,6.592-6.824,6.592c-1.473,0.482-5.98-2.758-7.479-1.805
				c-1.498,0.951,3.375,2.641,7.592,6.589c4.22,3.949,1.25,17.896,0.429,18.623c-0.822,0.729-4.855-1.434-5.22-1.438
				c-0.365-0.006,2.034,4.521,5.304,6.318c3.265,1.798,3.123,3.931,3.123,3.931c0.193,9.061,10.671,21.778,12.596,22.119
				C436.857,531.879,439.023,523.426,439.532,518.034z"/>
			<path fill="#78E6FF" d="M301.076,272.159c0.214-1.75-0.985-5.258-2.572-8.718c0.38-1.112,0.743-2.557,0.629-3.037
				c-0.108-0.466-1.106-0.207-2.059,0.129c-1.109-2.108-2.262-3.989-3.186-5.16c-2.78-3.516-4.885-4.94-5.646-8.118
				c-0.763-3.177,2.66-6.496,2.119-7.233s-5.288,3.313-5.288,3.313c-1.136,0.114-4.6-2.546-5.758-2.134
				c-1.159,0.411,2.592,2.129,5.83,5.204c3.238,3.076,0.896,11.59,0.261,11.948c-0.638,0.356-3.739-1.555-4.02-1.604
				c-0.281-0.052,1.551,3.153,4.066,4.73c2.511,1.577,2.394,2.921,2.394,2.921c0.116,5.811,8.148,15.308,9.631,15.778
				C298.961,280.648,300.664,275.537,301.076,272.159z"/>
			<path fill="#78E6FF" d="M251.393,206.779c0.265-1.743-0.833-5.284-2.32-8.788c0.412-1.101,0.816-2.534,0.716-3.018
				c-0.095-0.469-1.1-0.238-2.061,0.07c-1.048-2.139-2.146-4.053-3.036-5.25c-2.678-3.594-4.74-5.079-5.41-8.277
				c-0.671-3.197,2.846-6.417,2.327-7.169s-5.381,3.159-5.381,3.159c-1.139,0.082-4.524-2.677-5.694-2.299
				c-1.17,0.377,2.529,2.203,5.678,5.37c3.148,3.168,0.563,11.611-0.083,11.95c-0.647,0.338-3.693-1.662-3.972-1.719
				c-0.28-0.06,1.459,3.197,3.929,4.846c2.464,1.648,2.309,2.988,2.309,2.988c-0.051,5.812,7.705,15.536,9.173,16.049
				C249.034,215.204,250.883,210.144,251.393,206.779z"/>
			<path fill="#78E6FF" d="M359.425,362.011c0.386-1.521-0.042-4.509-0.763-7.442c0.425-0.974,0.881-2.235,0.859-2.646
				c-0.021-0.398-0.79-0.141-1.537,0.186c-0.544-1.782-1.148-3.366-1.679-4.345c-1.594-2.938-2.961-4.094-3.109-6.813
				c-0.149-2.718,2.81-5.709,2.506-6.326c-0.303-0.618-4.333,3.053-4.333,3.053c-0.854,0.139-3.063-2.035-3.972-1.638
				c-0.909,0.396,1.636,1.747,3.625,4.288s-0.847,9.982-1.362,10.314c-0.516,0.331-2.557-1.208-2.757-1.242
				c-0.201-0.034,0.734,2.669,2.385,3.941c1.647,1.272,1.386,2.438,1.386,2.438c-0.671,5.017,4.021,12.934,5.054,13.287
				C356.761,369.422,358.682,364.943,359.425,362.011z"/>
			<path fill="#78E6FF" d="M323.78,366.518c-0.153-1.389-1.442-3.744-2.96-5.965c0.05-0.944,0.036-2.139-0.11-2.473
				c-0.141-0.327-0.702,0.129-1.223,0.635c-1.011-1.316-2.009-2.447-2.757-3.098c-2.245-1.952-3.747-2.487-4.72-4.707
				c-0.973-2.219,0.56-5.636,0.113-6.056c-0.445-0.42-2.657,3.898-2.657,3.898c-0.669,0.382-3.189-0.739-3.822-0.125
				c-0.634,0.615,1.909,0.946,4.36,2.442c2.452,1.496,2.412,8.584,2.086,9.022c-0.326,0.437-2.508-0.208-2.686-0.174
				c-0.179,0.033,1.446,1.994,3.219,2.54c1.771,0.546,1.917,1.599,1.917,1.599c1.008,4.392,7.392,9.524,8.362,9.497
				C323.875,373.526,324.077,369.193,323.78,366.518z"/>
			<path fill="#78E6FF" d="M381.603,510.189c0.386-1.521-0.042-4.509-0.763-7.442c0.425-0.974,0.881-2.235,0.859-2.646
				c-0.021-0.398-0.79-0.141-1.537,0.186c-0.544-1.782-1.148-3.366-1.679-4.345c-1.594-2.938-2.961-4.094-3.109-6.813
				c-0.149-2.718,2.81-5.709,2.506-6.326c-0.303-0.618-4.333,3.053-4.333,3.053c-0.854,0.139-3.063-2.035-3.972-1.638
				c-0.909,0.396,1.636,1.747,3.625,4.288s-0.847,9.982-1.362,10.314c-0.516,0.331-2.557-1.208-2.757-1.242
				c-0.201-0.034,0.734,2.669,2.385,3.941c1.647,1.272,1.386,2.438,1.386,2.438c-0.671,5.017,4.021,12.934,5.054,13.287
				C378.938,517.601,380.859,513.122,381.603,510.189z"/>
			<path fill="#78E6FF" d="M33.151,12.998c-0.375-1.524-2.158-3.959-4.174-6.208c-0.083-1.059-0.274-2.387-0.486-2.74
				c-0.205-0.341-0.763,0.249-1.269,0.888c-1.318-1.316-2.597-2.431-3.525-3.044c-2.789-1.843-4.539-2.219-5.949-4.547
				c-1.41-2.328-0.207-6.36-0.765-6.762c-0.558-0.402-2.388,4.732-2.388,4.732c-0.687,0.524-3.66-0.355-4.275,0.423
				c-0.615,0.778,2.266,0.772,5.216,2.079c2.951,1.306,3.95,9.207,3.651,9.742c-0.299,0.535-2.824,0.136-3.017,0.201
				c-0.194,0.064,1.905,2.009,3.959,2.356c2.053,0.348,2.37,1.5,2.37,1.5c1.769,4.741,9.633,9.521,10.711,9.347
				S33.875,15.934,33.151,12.998z"/>
			<path fill="#78E6FF" d="M64.465,47.192c-0.375-1.524-2.158-3.959-4.174-6.208c-0.083-1.059-0.274-2.387-0.486-2.74
				c-0.205-0.341-0.763,0.249-1.269,0.888c-1.318-1.316-2.597-2.431-3.525-3.044c-2.789-1.843-4.539-2.219-5.949-4.547
				c-1.41-2.328-0.207-6.36-0.765-6.762c-0.558-0.402-2.388,4.732-2.388,4.732c-0.687,0.524-3.66-0.355-4.275,0.423
				c-0.615,0.778,2.266,0.772,5.216,2.079c2.951,1.306,3.95,9.207,3.651,9.742c-0.299,0.535-2.824,0.136-3.017,0.201
				c-0.194,0.064,1.905,2.009,3.959,2.356c2.053,0.348,2.37,1.5,2.37,1.5c1.769,4.741,9.633,9.521,10.711,9.347
				S65.189,50.129,64.465,47.192z"/>
			<path fill="#78E6FF" d="M56.207,213.44c-1.127-0.794-3.236-1.405-5.657-1.832c-1.317-0.919-3.025-2.155-4.05-2.784
				c-1.086-0.667-0.074,0.91,0.035,2.262c-3.234-0.287-6.422-0.278-8.26,0.045c-4.076,0.716-5.97,1.928-9.214,0.927
				c-3.244-1-5.578-6.019-6.422-5.907c-0.843,0.111,1.862,6.77,1.862,6.77c-0.175,1.13-3.598,2.954-3.492,4.268
				c0.105,1.314,2.695-1.29,6.46-2.675c3.766-1.387,11.364,5.422,11.548,6.213c0.185,0.792-2.428,2.68-2.548,2.917
				c-0.12,0.237,3.42,0.243,5.564-1.271c2.145-1.514,3.407-0.675,3.407-0.675c5.612,3.032,16.749,0.604,17.572-0.538
				C63.835,220.018,59.348,215.652,56.207,213.44z"/>
		</g>
	</g>
</g>
<g id="Designed_by_Freepik">
</g>
</svg>
